<?xml version="1.0" encoding="UTF-8" standalone="no"?>
<svg
   viewBox="0 0 562500 250000"
   version="1.1"
   id="svg242"
   sodipodi:docname="LoginSvg.svg"
   inkscape:version="1.3.2 (091e20e, 2023-11-25)"
   inkscape:export-filename="LoginSvg1.svg"
   inkscape:export-xdpi="96"
   inkscape:export-ydpi="96"
   width="562500"
   height="250000"
   xmlns:inkscape="http://www.inkscape.org/namespaces/inkscape"
   xmlns:sodipodi="http://sodipodi.sourceforge.net/DTD/sodipodi-0.dtd"
   xmlns="http://www.w3.org/2000/svg"
   xmlns:svg="http://www.w3.org/2000/svg">
  <defs
     id="defs242" />
  <sodipodi:namedview
     id="namedview242"
     pagecolor="#ffffff"
     bordercolor="#000000"
     borderopacity="0.25"
     inkscape:showpageshadow="2"
     inkscape:pageopacity="0.0"
     inkscape:pagecheckerboard="0"
     inkscape:deskcolor="#d1d1d1"
     inkscape:zoom="0.76019907"
     inkscape:cx="361.74735"
     inkscape:cy="289.39788"
     inkscape:window-width="1312"
     inkscape:window-height="449"
     inkscape:window-x="0"
     inkscape:window-y="38"
     inkscape:window-maximized="0"
     inkscape:current-layer="svg242" />
  <g
     id="freepik--background-complete--inject-7">
    <rect
       x="37.110001"
       y="249.37"
       width="70.800003"
       height="73.809998"
       style="fill:#e0e0e0"
       id="rect1" />
    <rect
       x="32.310001"
       y="249.37"
       width="70.800003"
       height="73.809998"
       style="fill:#f5f5f5"
       id="rect2" />
    <path
       d="M 103.14,323.2 H 32.29 v -73.85 h 70.85 z m -70.8,-0.05 h 70.75 V 249.39 H 32.34 Z"
       style="fill:#e0e0e0"
       id="path2" />
    <rect
       x="41.830002"
       y="259.29001"
       width="51.77"
       height="53.959999"
       style="fill:#ffffff"
       id="rect3" />
    <path
       d="m 41.83,313.61 a 8.17,8.17 0 0 1 -1.28,1.49 c -0.82,0.87 -2,2 -3.29,3.34 -1.29,1.34 -2.5,2.42 -3.38,3.23 a 8.33,8.33 0 0 1 -1.5,1.25 8.35,8.35 0 0 1 1.28,-1.48 c 0.82,-0.87 2,-2.06 3.29,-3.34 1.29,-1.28 2.51,-2.43 3.39,-3.25 a 8.54,8.54 0 0 1 1.49,-1.24 z"
       style="fill:#e0e0e0"
       id="path3" />
    <path
       d="m 93.6,313.48 a 8.35,8.35 0 0 1 1.48,1.28 c 0.88,0.83 2.06,2 3.34,3.29 1.28,1.29 2.42,2.5 3.24,3.38 a 7.49,7.49 0 0 1 1.24,1.5 9.49,9.49 0 0 1 -1.48,-1.27 c -0.87,-0.83 -2,-2 -3.34,-3.3 -1.34,-1.3 -2.43,-2.51 -3.24,-3.39 a 8,8 0 0 1 -1.24,-1.49 z"
       style="fill:#e0e0e0"
       id="path4" />
    <path
       d="M 93.46,259.44 A 8.32,8.32 0 0 1 94.73,258 c 0.83,-0.87 2,-2 3.29,-3.33 1.29,-1.33 2.5,-2.43 3.39,-3.24 a 9,9 0 0 1 1.49,-1.25 7.51,7.51 0 0 1 -1.27,1.48 c -0.83,0.87 -2,2.06 -3.3,3.34 -1.3,1.28 -2.5,2.44 -3.38,3.25 a 8.4,8.4 0 0 1 -1.49,1.19 z"
       style="fill:#e0e0e0"
       id="path5" />
    <path
       d="m 41.69,259.57 a 8.58,8.58 0 0 1 -1.49,-1.28 c -0.87,-0.82 -2.05,-2 -3.33,-3.29 -1.28,-1.29 -2.43,-2.5 -3.24,-3.38 a 7.49,7.49 0 0 1 -1.24,-1.5 9.21,9.21 0 0 1 1.47,1.27 c 0.88,0.83 2.06,2 3.35,3.3 1.29,1.3 2.43,2.51 3.24,3.39 a 8,8 0 0 1 1.24,1.49 z"
       style="fill:#e0e0e0"
       id="path6" />
    <path
       d="m 93.46,313.26 a 1.67,1.67 0 0 1 0,-0.27 c 0,-0.18 0,-0.43 0,-0.75 0,-0.68 0,-1.65 0,-2.91 0,-2.56 0,-6.28 0,-11 0,-9.45 -0.06,-22.92 -0.1,-39 l 0.2,0.2 H 41.94 v 0 l 0.23,-0.23 c 0,19.81 0,38.34 0,54 l -0.2,-0.2 37.38,0.1 h 10.5 2.78 0.72 0.25 -0.93 -2.74 l -10.45,0.05 -37.51,0.1 h -0.2 v -0.19 c 0,-15.63 0,-34.16 0,-54 v -0.23 h 0.24 51.62 0.2 v 0.2 c 0,16.18 -0.08,29.69 -0.11,39.17 0,4.7 0,8.4 0,11 0,1.25 0,2.21 0,2.87 0,0.32 0,0.56 0,0.74 0,0.18 -0.26,0.35 -0.26,0.35 z"
       style="fill:#e0e0e0"
       id="path7" />
    <rect
       x="59.080002"
       y="277.64001"
       width="17.27"
       height="17.27"
       style="fill:#ebebeb"
       id="rect7" />
    <rect
       x="634.65002"
       y="66.919998"
       width="90.43"
       height="131.08"
       style="fill:#e0e0e0"
       id="rect8" />
    <rect
       x="630.12"
       y="66.919998"
       width="90.43"
       height="131.08"
       style="fill:#f5f5f5"
       id="rect9" />
    <rect
       x="641.35999"
       y="81.110001"
       width="67.959999"
       height="102.69"
       style="fill:#ffffff"
       id="rect10" />
    <path
       d="m 709.32,183.8 c 0,0 0,-0.17 0,-0.5 0,-0.33 0,-0.82 0,-1.46 0,-1.29 0,-3.18 0,-5.63 0,-4.92 0,-12.09 -0.06,-21.15 0,-18.11 -0.07,-43.75 -0.11,-73.95 l 0.22,0.23 h -68 v 0 l 0.24,-0.25 c 0,38.74 0,74.46 -0.05,102.69 l -0.19,-0.19 49.47,0.1 h 13.66 3.59 1.24 c 0,0 -0.4,0 -1.2,0 h -3.55 -13.62 l -49.59,0.11 h -0.2 v -0.2 c 0,-28.23 0,-64 0,-102.69 v -0.24 h 0.26 68 0.23 v 0.22 c 0,30.26 -0.09,56 -0.11,74.1 0,9 -0.05,16.19 -0.06,21.1 0,2.43 0,4.3 0,5.58 0,0.63 0,1.1 0,1.44 0,0.34 -0.17,0.69 -0.17,0.69 z"
       style="fill:#e0e0e0"
       id="path10" />
    <path
       d="m 720.81,66.92 a 16.34,16.34 0 0 1 -1.61,2.34 c -1.05,1.4 -2.54,3.31 -4.24,5.38 -1.7,2.07 -3.3,3.9 -4.47,5.2 a 16.21,16.21 0 0 1 -2,2 15.39,15.39 0 0 1 1.72,-2.26 l 4.36,-5.28 4.36,-5.3 a 16.38,16.38 0 0 1 1.88,-2.08 z"
       style="fill:#e0e0e0"
       id="path11" />
    <path
       d="m 709.67,183.47 a 84.23,84.23 0 0 0 11.85,14.83"
       style="fill:#ffffff"
       id="path12" />
    <path
       d="m 721.52,198.3 a 14.42,14.42 0 0 1 -2.06,-1.88 65.72,65.72 0 0 1 -8.41,-10.52 12.86,12.86 0 0 1 -1.38,-2.43 19.17,19.17 0 0 1 1.67,2.24 c 1,1.39 2.39,3.31 4,5.36 1.61,2.05 3.19,3.83 4.34,5.11 a 18.18,18.18 0 0 1 1.84,2.12 z"
       style="fill:#e0e0e0"
       id="path13" />
    <path
       d="M 630.11,197.89 642,183.28"
       style="fill:#ffffff"
       id="path14" />
    <path
       d="m 642,183.28 a 87.26,87.26 0 0 1 -5.73,7.46 89.47,89.47 0 0 1 -6.11,7.15 91.1,91.1 0 0 1 5.73,-7.46 91.7,91.7 0 0 1 6.11,-7.15 z"
       style="fill:#e0e0e0"
       id="path15" />
    <path
       d="m 630.12,66.92 a 79.76,79.76 0 0 1 5.75,6.87 82.84,82.84 0 0 1 5.37,7.21 81,81 0 0 1 -5.75,-6.88 83.69,83.69 0 0 1 -5.37,-7.2 z"
       style="fill:#e0e0e0"
       id="path16" />
    <rect
       x="665.39001"
       y="101.96"
       width="22.76"
       height="64.610001"
       style="fill:#e0e0e0"
       id="rect16" />
    <rect
       x="31.4"
       y="79.940002"
       width="96.599998"
       height="140.02"
       style="fill:#e0e0e0"
       id="rect17" />
    <rect
       x="26.559999"
       y="79.940002"
       width="96.599998"
       height="140.02"
       style="fill:#f5f5f5"
       id="rect18" />
    <rect
       x="38.57"
       y="95.099998"
       width="72.599998"
       height="109.69"
       style="fill:#ffffff"
       id="rect19" />
    <path
       d="m 111.16,204.79 c 0,0 0,-0.19 0,-0.54 0,-0.35 0,-0.88 0,-1.55 0,-1.38 0,-3.4 0,-6 0,-5.26 0,-12.92 -0.07,-22.59 0,-19.35 -0.07,-46.74 -0.12,-79 l 0.24,0.24 H 38.63 v 0 l 0.26,-0.26 c 0,41.38 0,79.53 0,109.69 l -0.21,-0.21 52.84,0.11 14.6,0.05 h 3.83 c 0.87,0 1.32,0 1.32,0 h -1.28 -3.79 -14.55 l -53,0.11 h -0.21 v -0.21 c 0,-30.16 0,-68.31 -0.06,-109.69 v -0.26 h 0.28 72.58 0.24 v 0.24 c 0,32.32 -0.09,59.76 -0.11,79.14 0,9.66 -0.05,17.3 -0.07,22.54 0,2.6 0,4.61 0,6 0,0.67 0,1.18 0,1.53 0,0.35 -0.14,0.66 -0.14,0.66 z"
       style="fill:#e0e0e0"
       id="path19" />
    <path
       d="m 123.44,79.94 a 17.41,17.41 0 0 1 -1.73,2.5 c -1.12,1.5 -2.71,3.54 -4.53,5.75 -1.82,2.21 -3.51,4.16 -4.77,5.55 a 16.78,16.78 0 0 1 -2.13,2.17 18.14,18.14 0 0 1 1.85,-2.42 l 4.65,-5.64 4.64,-5.64 a 17.48,17.48 0 0 1 2.02,-2.27 z"
       style="fill:#e0e0e0"
       id="path20" />
    <path
       d="m 111.53,204.44 a 90.28,90.28 0 0 0 12.67,15.83"
       style="fill:#ffffff"
       id="path21" />
    <path
       d="m 124.2,220.27 a 14.22,14.22 0 0 1 -2.21,-2 A 69.43,69.43 0 0 1 113,207 a 15.73,15.73 0 0 1 -1.48,-2.59 17.94,17.94 0 0 1 1.78,2.38 c 1.07,1.5 2.57,3.54 4.31,5.73 1.74,2.19 3.41,4.09 4.64,5.46 a 22.46,22.46 0 0 1 1.95,2.29 z"
       style="fill:#e0e0e0"
       id="path22" />
    <path
       d="m 26.55,219.84 q 6.33,-7.8 12.65,-15.61"
       style="fill:#ffffff"
       id="path23" />
    <path
       d="m 39.2,204.23 a 92.69,92.69 0 0 1 -6.12,8 96.52,96.52 0 0 1 -6.53,7.64 97.93,97.93 0 0 1 6.12,-8 99.08,99.08 0 0 1 6.53,-7.64 z"
       style="fill:#e0e0e0"
       id="path24" />
    <path
       d="m 26.56,79.94 a 84.29,84.29 0 0 1 6.15,7.34 89.37,89.37 0 0 1 5.73,7.72 85.45,85.45 0 0 1 -6.15,-7.35 90.24,90.24 0 0 1 -5.73,-7.71 z"
       style="fill:#e0e0e0"
       id="path25" />
    <rect
       x="64.239998"
       y="117.37"
       width="24.309999"
       height="69.019997"
       style="fill:#e0e0e0"
       id="rect25" />
    <rect
       x="541.73999"
       y="48.860001"
       width="8.8599997"
       height="44.110001"
       transform="rotate(-0.31,541.35121,69.850119)"
       style="fill:#e0e0e0"
       id="rect26" />
    <rect
       x="464.89001"
       y="49.009998"
       width="22.959999"
       height="24.35"
       transform="rotate(-0.31,471.14284,60.418886)"
       style="fill:#ebebeb"
       id="rect27" />
    <rect
       x="487.73999"
       y="48.889999"
       width="22.959999"
       height="24.35"
       transform="rotate(-0.31,493.3218,60.478886)"
       style="fill:#f5f5f5"
       id="rect28" />
    <path
       d="m 464.86,55.8 q 22.89,0.2 45.8,-0.21 a 0.25,0.25 0 0 0 0,-0.49 c -15.25,-0.08 -30.55,0 -45.8,0.28 a 0.21,0.21 0 0 0 0,0.42 z"
       style="fill:#e0e0e0"
       id="path28" />
    <rect
       x="450.56"
       y="73.010002"
       width="41.709999"
       height="19.85"
       transform="rotate(-0.31,467.38635,82.587844)"
       style="fill:#ebebeb"
       id="rect29" />
    <rect
       x="492.07999"
       y="72.790001"
       width="41.709999"
       height="19.85"
       transform="rotate(-0.31,508.04777,82.697844)"
       style="fill:#f5f5f5"
       id="rect30" />
    <path
       d="m 450.54,78.64 c 27.71,0.31 55.51,0 83.22,-0.41 a 0.25,0.25 0 0 0 0,-0.49 c -27.71,-0.14 -55.52,-0.13 -83.22,0.48 a 0.21,0.21 0 0 0 0,0.42 z"
       style="fill:#e0e0e0"
       id="path30" />
    <rect
       x="434.94"
       y="92.970001"
       width="161.59"
       height="9.4799995"
       style="fill:#e0e0e0"
       id="rect31" />
    <rect
       x="461.39999"
       y="96.379997"
       width="6.5599999"
       height="12.13"
       style="fill:#e0e0e0"
       id="rect32" />
    <rect
       x="559.32001"
       y="96.379997"
       width="6.5599999"
       height="12.13"
       style="fill:#e0e0e0"
       id="rect33" />
    <rect
       x="550.44"
       y="32.41"
       width="8.8599997"
       height="60.669998"
       transform="rotate(-0.31,548.76419,62.477133)"
       style="fill:#ebebeb"
       id="rect34" />
    <rect
       x="559.34998"
       y="43.720001"
       width="13.77"
       height="49.16"
       transform="rotate(-0.31,561.68692,68.056872)"
       style="fill:#f5f5f5"
       id="rect35" />
    <path
       d="m 572.9,53.15 a 99,99 0 0 1 -13.78,0 99,99 0 0 1 13.78,0 z"
       style="fill:#e0e0e0"
       id="path35" />
    <path
       d="m 572.9,51.09 a 99,99 0 0 1 -13.78,0 99,99 0 0 1 13.78,0 z"
       style="fill:#e0e0e0"
       id="path36" />
    <path
       d="m 572.9,85.45 a 99,99 0 0 1 -13.78,0 99,99 0 0 1 13.78,0 z"
       style="fill:#e0e0e0"
       id="path37" />
    <path
       d="m 572.9,83.38 a 99,99 0 0 1 -13.78,0 99,99 0 0 1 13.78,0 z"
       style="fill:#e0e0e0"
       id="path38" />
    <path
       d="m 566.23,78.88 c -0.13,0 -0.24,-5 -0.24,-11.08 0,-6.08 0.11,-11.08 0.24,-11.08 0.13,0 0.24,5 0.24,11.08 0,6.08 -0.11,11.08 -0.24,11.08 z"
       style="fill:#e0e0e0"
       id="path39" />
    <rect
       x="573.04999"
       y="55.75"
       width="14.99"
       height="37.110001"
       style="fill:#ebebeb"
       id="rect39" />
    <path
       d="m 557.12,42.75 a 2.55,2.55 0 1 1 -2.54,-2.55 2.54,2.54 0 0 1 2.54,2.55 z"
       style="fill:#e0e0e0"
       id="path40" />
    <rect
       x="553.78998"
       y="49.75"
       width="1.58"
       height="36.09"
       style="fill:#e0e0e0"
       id="rect40" />
    <rect
       x="234.58"
       y="72.629997"
       width="48.650002"
       height="12.87"
       style="fill:#f5f5f5"
       id="rect41" />
    <path
       d="m 262.66,99.06 a 1.35,1.35 0 0 1 0,-0.24 v -0.66 c 0,-0.6 0,-1.45 0,-2.53 0,-2.22 0,-5.42 -0.08,-9.44 l 0.15,0.15 -48.73,0.09 0.25,-0.24 v 0 12.87 l -0.24,-0.25 34.67,0.11 10.23,0.07 h 2.77 0.72 0.26 -0.23 -0.69 -2.71 L 248.85,99.06 214,99.3 h -0.25 v -13.11 0 l 0.25,-0.25 48.65,0.09 h 0.15 v 0.16 c 0,4.06 -0.06,7.29 -0.08,9.53 0,1.07 0,1.9 0,2.5 0,0.26 0,0.47 0,0.63 a 1.66,1.66 0 0 1 -0.06,0.21 z"
       style="fill:#e0e0e0"
       id="path41" />
    <rect
       x="658.31"
       y="221.17"
       width="48.650002"
       height="12.87"
       style="fill:#f5f5f5"
       id="rect42" />
    <path
       d="m 686.39,247.6 a 1,1 0 0 1 0,-0.23 v -0.66 c 0,-0.61 0,-1.45 0,-2.54 0,-2.22 -0.05,-5.41 -0.08,-9.44 l 0.15,0.15 -48.65,0.1 c 0.11,-0.11 -0.25,0.24 0.24,-0.25 v 0 12.87 l -0.24,-0.24 34.67,0.11 10.23,0.07 h 2.77 0.72 0.26 a 0.94,0.94 0 0 1 -0.23,0 h -0.69 -2.72 l -10.17,0.07 -34.84,0.11 h -0.25 v -12.97 0 l 0.25,-0.25 48.65,0.1 h 0.15 v 0.15 c 0,4.07 -0.06,7.29 -0.08,9.53 0,1.07 0,1.9 0,2.5 0,0.26 0,0.47 0,0.64 a 1.23,1.23 0 0 1 -0.14,0.18 z"
       style="fill:#e0e0e0"
       id="path42" />
    <path
       d="m 387.34,58.46 a 2.07,2.07 0 0 1 0,-0.23 v -0.66 c 0,-0.61 0,-1.45 0,-2.54 0,-2.22 0,-5.41 -0.08,-9.44 l 0.15,0.15 -48.65,0.1 0.25,-0.25 v 0 6.52 q 0,3.23 0,6.33 l -0.24,-0.24 34.67,0.11 10.23,0.07 h 2.77 0.73 0.25 c 0,0 -0.07,0 -0.22,0 h -0.7 -2.71 l -10.18,0.07 -34.84,0.11 h -0.24 v -0.24 c 0,-2.07 0,-4.18 0,-6.33 v -6.38 0 l 0.25,-0.25 48.65,0.1 h 0.15 v 0.15 c 0,4.07 -0.06,7.29 -0.08,9.53 0,1.07 0,1.91 0,2.5 v 0.64 c -0.15,0.12 -0.15,0.19 -0.16,0.18 z"
       style="fill:#e0e0e0"
       id="path43" />
    <path
       d="m 393.94,45.59 a 1.35,1.35 0 0 1 0,-0.24 c 0,-0.19 0,-0.41 0,-0.69 0,-0.63 0,-1.49 0,-2.58 0,-2.25 -0.06,-5.44 -0.1,-9.36 l 0.18,0.18 -29.31,0.1 c -0.22,0.22 0.3,-0.3 0.24,-0.25 v 0 6.61 c 0,2.15 0,4.24 0,6.24 l -0.23,-0.24 20.91,0.12 6.09,0.06 h 1.64 0.59 a 3.28,3.28 0 0 1 -0.53,0 h -1.6 l -6,0.06 -21.07,0.12 h -0.24 v -0.24 c 0,-2 0,-4.09 0,-6.24 v -6.5 0 l 0.25,-0.25 29.23,0.07 h 0.18 v 0.18 c 0,4 -0.08,7.19 -0.1,9.47 0,1.07 0,1.92 0,2.54 0,0.62 -0.07,0.85 -0.13,0.84 z"
       style="fill:#e0e0e0"
       id="path44" />
    <path
       d="m 700.93,50.84 a 2.07,2.07 0 0 1 0,-0.23 v -0.66 c 0,-0.61 0,-1.45 0,-2.53 0,-2.22 0,-5.42 -0.08,-9.45 l 0.15,0.15 -48.65,0.1 0.25,-0.25 v 0 6.53 q 0,3.23 0,6.33 l -0.24,-0.24 34.67,0.11 10.23,0.07 h 2.77 0.73 0.25 c 0,0 -0.07,0 -0.22,0 h -0.7 -2.71 L 687.12,51 652.28,51.11 H 652 v -0.25 c 0,-2.07 0,-4.18 0,-6.33 V 38 38 l 0.25,-0.24 48.65,0.09 h 0.15 V 38 c 0,4.07 -0.06,7.29 -0.08,9.54 0,1.07 0,1.9 0,2.5 v 0.63 c -0.03,0.11 -0.03,0.18 -0.04,0.17 z"
       style="fill:#e0e0e0"
       id="path45" />
    <path
       d="m 147.63,56.2 a 1,1 0 0 1 0,-0.23 v -0.66 c 0,-0.61 0,-1.45 0,-2.53 0,-2.23 -0.05,-5.42 -0.08,-9.45 l 0.15,0.15 -48.7,0.1 0.25,-0.25 v 0 12.87 L 99,56 l 34.67,0.11 10.23,0.07 h 2.77 0.72 0.26 c 0,0 -0.07,0 -0.23,0 h -0.69 -2.71 L 133.84,56.24 99,56.45 h -0.25 v -13.1 0 c 0.5,-0.49 0.14,-0.14 0.25,-0.25 l 48.65,0.1 h 0.15 v 0.15 c 0,4.07 -0.06,7.29 -0.08,9.54 0,1.06 0,1.9 0,2.49 V 56 c -0.08,0.14 -0.08,0.21 -0.09,0.2 z"
       style="fill:#e0e0e0"
       id="path46" />
  </g>
  <g
     id="freepik--Floor--inject-7">
    <path
       d="m 712.81,459.13 c 0,0.14 -149.83,0.26 -334.61,0.26 -184.78,0 -334.63,-0.12 -334.63,-0.26 0,-0.14 149.79,-0.26 334.63,-0.26 184.84,0 334.61,0.13 334.61,0.26 z"
       style="fill:#263238"
       id="path47" />
  </g>
  <g
     id="freepik--Device--inject-7">
    <path
       d="m 591.9,454 h -421 A 25.2,25.2 0 0 1 145.7,428.8 V 139.91 a 18.38,18.38 0 0 1 18.38,-18.38 H 599.73 A 17.37,17.37 0 0 1 617.1,138.9 V 428.82 A 25.2,25.2 0 0 1 591.9,454 Z"
       style="fill:#e0e0e0"
       id="path48" />
    <path
       d="m 591.9,454 1,-0.07 1.27,-0.07 c 0.5,0 1.08,-0.15 1.74,-0.24 l 1.06,-0.16 1.15,-0.3 1.26,-0.33 1.34,-0.5 a 23.54,23.54 0 0 0 2.93,-1.31 c 0.51,-0.25 1,-0.59 1.53,-0.9 l 0.8,-0.49 0.77,-0.58 a 24.77,24.77 0 0 0 9.87,-16 c 0.07,-0.48 0.14,-0.95 0.22,-1.43 0.08,-0.48 0.06,-1 0.09,-1.47 0.07,-1 0.08,-2 0.07,-3 q 0,-3.08 0,-6.39 0,-6.6 0,-14.06 c 0,-39.74 0,-97.25 -0.09,-168.31 q 0,-26.64 0,-55.77 0,-14.53 0,-29.66 v -11.45 c 0,-1.27 0,-2.57 -0.07,-3.82 a 17.13,17.13 0 0 0 -7.33,-12.89 16.93,16.93 0 0 0 -7.16,-2.83 c -0.32,0 -0.64,-0.11 -1,-0.14 h -1 c -0.65,0 -1.31,0 -2,0 h -121.5 -305.66 -5.08 c -0.84,0 -1.7,0 -2.53,0 l -1.24,0.06 c -0.42,0.05 -0.83,0.12 -1.24,0.18 a 7.34,7.34 0 0 0 -1.22,0.25 c -0.41,0.11 -0.81,0.2 -1.21,0.32 a 18.57,18.57 0 0 0 -2.31,0.93 17.4,17.4 0 0 0 -4.15,2.72 17.65,17.65 0 0 0 -3.21,3.71 19.08,19.08 0 0 0 -2.12,4.47 18.79,18.79 0 0 0 -0.8,4.88 c -0.05,1.66 0,3.35 0,5 v 117.93 c 0,51.13 0,100.45 0,147.43 v 17.51 c 0,1.45 0.05,2.88 0.15,4.31 l 0.32,2.12 c 0.14,0.7 0.35,1.38 0.52,2.08 a 25.23,25.23 0 0 0 3.7,7.63 24.85,24.85 0 0 0 13.58,9.49 c 0.68,0.16 1.34,0.39 2,0.49 l 2.07,0.31 c 1.39,0.08 2.78,0.17 4.18,0.14 h 73.14 116.23 L 530.26,453.87 576,454 h 11.9 4 -4 -11.9 l -45.76,0.05 -168.29,0.08 H 245.72 172.53 c -1.39,0 -2.81,-0.06 -4.23,-0.14 l -2.1,-0.32 c -0.71,-0.1 -1.38,-0.33 -2.08,-0.49 a 25.33,25.33 0 0 1 -13.83,-9.67 25.83,25.83 0 0 1 -3.78,-7.77 c -0.17,-0.71 -0.38,-1.41 -0.52,-2.12 l -0.33,-2.16 c -0.1,-1.45 -0.18,-2.92 -0.15,-4.36 q 0,-8.7 0,-17.51 c 0,-47 0,-96.3 0,-147.43 q 0,-38.35 0,-78 V 144.4 c 0,-1.68 0,-3.34 0,-5 a 19.37,19.37 0 0 1 0.82,-5 20.06,20.06 0 0 1 2.18,-4.61 18.92,18.92 0 0 1 3.35,-3.85 18.1,18.1 0 0 1 4.27,-2.8 20.4,20.4 0 0 1 2.38,-1 c 0.41,-0.12 0.83,-0.21 1.25,-0.32 a 7.71,7.71 0 0 1 1.25,-0.26 c 0.43,-0.06 0.85,-0.14 1.27,-0.19 l 1.29,-0.06 c 0.86,-0.06 1.69,0 2.54,0 h 5.08 305.66 121.57 c 0.66,0 1.32,0 2,0 l 1,0.05 c 0.33,0 0.66,0.09 1,0.14 a 17.17,17.17 0 0 1 7.33,2.91 17.55,17.55 0 0 1 7.52,13.21 c 0.09,1.3 0,2.57 0.06,3.85 v 11.42 q 0,15.12 0,29.66 0,29.1 0,55.77 c 0,71.06 -0.06,128.57 -0.08,168.31 q 0,7.45 0,14.06 c 0,2.21 0,4.34 0,6.39 0,1 0,2 -0.07,3 0,0.5 0,1 -0.1,1.48 -0.1,0.48 -0.15,1 -0.22,1.43 a 24.91,24.91 0 0 1 -10,16.08 l -0.77,0.58 -0.8,0.49 c -0.54,0.31 -1,0.65 -1.55,0.91 a 26.85,26.85 0 0 1 -2.94,1.3 l -1.35,0.49 -1.27,0.32 -1.15,0.29 -1.06,0.16 a 17.31,17.31 0 0 1 -1.75,0.23 l -1.27,0.06 z"
       style="fill:#263238"
       id="path49" />
    <path
       d="M 616.61,459.08 H 150.39 A 24.36,24.36 0 0 1 126,434.72 v -3.79 a 0.94,0.94 0 0 1 1,-0.93 h 508.8 a 0.94,0.94 0 0 1 0.94,0.94 V 439 a 20.1,20.1 0 0 1 -20.13,20.08 z"
       style="fill:#e0e0e0"
       id="path50" />
    <path
       d="m 616.61,459.08 0.68,-0.05 a 14.87,14.87 0 0 0 2,-0.18 19.08,19.08 0 0 0 7.5,-2.65 19.34,19.34 0 0 0 4.55,-3.71 20.2,20.2 0 0 0 3.78,-6 20.82,20.82 0 0 0 1.46,-8.11 c 0,-1.49 0,-3 0,-4.6 v -2.41 c 0,-0.41 0,-0.82 -0.27,-1.07 -0.27,-0.25 -0.69,-0.22 -1.11,-0.23 l -113.55,0.08 -374.61,0.08 H 127 a 0.78,0.78 0 0 0 -0.31,0.05 0.68,0.68 0 0 0 -0.38,0.45 4.65,4.65 0 0 0 0,0.78 v 1.7 c 0,1.13 0,2.25 0.1,3.37 a 22.92,22.92 0 0 0 1.43,6.5 25.93,25.93 0 0 0 1.35,3 27.22,27.22 0 0 0 1.81,2.92 24.24,24.24 0 0 0 10.28,8 25.5,25.5 0 0 0 6.37,1.63 c 2.17,0.21 4.39,0.16 6.6,0.16 H 293 L 461.41,458.85 575,459 h 30.87 8 2.74 -2.74 -8 L 575,459.05 461.46,459.14 293,459.32 h -99.46 -39.29 c -2.2,0 -4.42,0 -6.66,-0.17 a 25.74,25.74 0 0 1 -6.51,-1.66 24.77,24.77 0 0 1 -10.53,-8.25 26.76,26.76 0 0 1 -1.84,-2.86 29.72,29.72 0 0 1 -1.38,-3.11 23.71,23.71 0 0 1 -1.46,-6.65 c -0.07,-1.14 -0.12,-2.28 -0.1,-3.41 v -1.7 a 4.92,4.92 0 0 1 0,-0.91 1.22,1.22 0 0 1 1.2,-0.89 h 20.06 l 374.61,0.08 113.55,0.08 h 0.63 a 1,1 0 0 1 0.62,0.28 1,1 0 0 1 0.31,0.59 c 0,0.24 0,0.42 0,0.63 0,0.81 0,1.62 0,2.41 v 4.6 a 20.94,20.94 0 0 1 -1.5,8.17 20,20 0 0 1 -3.83,6 20.06,20.06 0 0 1 -12.14,6.33 14.18,14.18 0 0 1 -2,0.16 z"
       style="fill:#263238"
       id="path51" />
    <rect
       x="165.06"
       y="141.83"
       width="431.39001"
       height="272.35999"
       rx="5.25"
       style="fill:#455a64"
       id="rect51" />
    <path
       d="m 591.21,414.19 c 0,0 0.31,0 0.9,-0.1 a 5.36,5.36 0 0 0 2.42,-1.12 5.2,5.2 0 0 0 1.88,-3.85 q 0,-2.65 0,-6.15 c 0,-9.32 0,-23.05 0,-40.75 0,-35.38 -0.05,-86.58 -0.09,-149.85 q 0,-23.73 0,-49.66 0,-6.47 0,-13.08 V 148 a 10.77,10.77 0 0 0 -0.06,-1.62 5,5 0 0 0 -1.39,-2.82 5.08,5.08 0 0 0 -2.8,-1.44 9.88,9.88 0 0 0 -1.64,-0.06 H 561.33 442.56 170.41 a 5,5 0 0 0 -3.79,1.72 4.82,4.82 0 0 0 -1,1.87 7,7 0 0 0 -0.2,2.16 v 131.94 q 0,34.14 0,67 v 60.32 a 9.44,9.44 0 0 0 0.38,3.78 5,5 0 0 0 2.54,2.62 4.91,4.91 0 0 0 1.8,0.44 c 0.62,0 1.29,0 1.94,0 h 111 103.49 l 149.85,0.08 40.74,0.05 h 10.59 3.61 -3.61 -10.59 l -40.74,0.05 -149.85,0.08 H 283.08 225.43 172 c -0.66,0 -1.29,0 -2,0 a 5.64,5.64 0 0 1 -2,-0.48 5.56,5.56 0 0 1 -2.78,-2.87 5.31,5.31 0 0 1 -0.42,-2 v -62.05 q 0,-32.85 0,-67 v -69.46 q 0,-17.64 0,-35.52 v -26.95 a 7.66,7.66 0 0 1 0.23,-2.31 5.15,5.15 0 0 1 1.13,-2.06 5.5,5.5 0 0 1 4.18,-1.9 h 272.15 118.77 29.1 a 9.79,9.79 0 0 1 1.7,0.07 5.54,5.54 0 0 1 3,1.56 5.42,5.42 0 0 1 1.5,3.05 10.61,10.61 0 0 1 0.06,1.68 v 14.73 q 0,25.9 0,49.66 c 0,63.27 -0.06,114.47 -0.08,149.85 0,17.7 0,31.43 0,40.75 q 0,3.5 0,6.15 a 5.27,5.27 0 0 1 -1.93,3.89 5.2,5.2 0 0 1 -2.44,1.11 4.13,4.13 0 0 1 -0.68,0.06 z"
       style="fill:#263238"
       id="path52" />
    <polygon
       points="430.46,440.18 436.35,429.43 334.95,429.43 341.29,440.18 "
       style="fill:#263238"
       id="polygon52" />
    <path
       d="m 384.91,132.61 a 3.54,3.54 0 1 1 -3.54,-3.54 3.54,3.54 0 0 1 3.54,3.54 z"
       style="fill:#263238"
       id="path53" />
    <rect
       x="312.67999"
       y="275.39001"
       width="137.09"
       height="23.68"
       rx="1.45"
       style="fill:#f5f5f5"
       id="rect53" />
    <rect
       x="312.81"
       y="307.92001"
       width="137.09"
       height="23.68"
       rx="1.45"
       style="fill:#f5f5f5"
       id="rect54" />
    <path
       d="M 322.07,287.08 V 284 h 0.78 v 3 c 0,1.22 0.56,1.76 1.54,1.76 0.98,0 1.55,-0.54 1.55,-1.76 v -3 h 0.76 v 3.11 a 2.32,2.32 0 1 1 -4.63,0 z"
       style="fill:#263238"
       id="path54" />
    <path
       d="m 327.67,289 0.31,-0.6 a 2.68,2.68 0 0 0 1.46,0.43 c 0.69,0 1,-0.21 1,-0.56 0,-0.93 -2.62,-0.12 -2.62,-1.77 0,-0.74 0.67,-1.24 1.73,-1.24 a 3.07,3.07 0 0 1 1.51,0.37 l -0.32,0.59 a 2.19,2.19 0 0 0 -1.2,-0.32 c -0.65,0 -1,0.24 -1,0.57 0,1 2.62,0.18 2.62,1.79 0,0.75 -0.69,1.22 -1.79,1.22 a 3,3 0 0 1 -1.7,-0.48 z"
       style="fill:#263238"
       id="path55" />
    <path
       d="m 335.84,287.61 h -3.36 a 1.4,1.4 0 0 0 1.5,1.22 1.55,1.55 0 0 0 1.19,-0.5 l 0.42,0.48 a 2.26,2.26 0 0 1 -3.86,-1.45 2,2 0 0 1 2.08,-2.1 2,2 0 0 1 2,2.13 1.7,1.7 0 0 1 0.03,0.22 z m -3.36,-0.53 h 2.65 a 1.33,1.33 0 0 0 -2.65,0 z"
       style="fill:#263238"
       id="path56" />
    <path
       d="M 339.12,285.26 V 286 H 339 a 1.24,1.24 0 0 0 -1.3,1.4 v 2.07 h -0.75 v -4.15 h 0.72 v 0.7 a 1.57,1.57 0 0 1 1.45,-0.76 z"
       style="fill:#263238"
       id="path57" />
    <path
       d="m 344,287.05 v 2.39 h -0.75 v -2.3 c 0,-0.81 -0.41,-1.21 -1.12,-1.21 a 1.22,1.22 0 0 0 -1.31,1.37 v 2.14 h -0.75 v -4.15 h 0.72 v 0.63 a 1.76,1.76 0 0 1 1.49,-0.66 1.6,1.6 0 0 1 1.72,1.79 z"
       style="fill:#263238"
       id="path58" />
    <path
       d="m 348.65,286.94 v 2.5 h -0.71 v -0.55 a 1.55,1.55 0 0 1 -1.36,0.59 c -0.93,0 -1.53,-0.5 -1.53,-1.22 0,-0.72 0.43,-1.21 1.67,-1.21 h 1.18 v -0.15 c 0,-0.63 -0.36,-1 -1.11,-1 a 2.11,2.11 0 0 0 -1.31,0.45 l -0.31,-0.56 a 2.72,2.72 0 0 1 1.71,-0.53 c 1.12,0 1.77,0.54 1.77,1.68 z m -0.75,1.23 v -0.58 h -1.15 c -0.74,0 -1,0.29 -1,0.64 0,0.35 0.35,0.67 0.92,0.67 a 1.18,1.18 0 0 0 1.23,-0.73 z"
       style="fill:#263238"
       id="path59" />
    <path
       d="m 356.92,287.05 v 2.39 h -0.75 v -2.3 c 0,-0.81 -0.39,-1.21 -1.07,-1.21 a 1.2,1.2 0 0 0 -1.24,1.37 v 2.14 h -0.75 v -2.3 c 0,-0.81 -0.39,-1.21 -1.07,-1.21 a 1.2,1.2 0 0 0 -1.24,1.37 v 2.14 h -0.75 v -4.15 h 0.72 v 0.62 a 1.66,1.66 0 0 1 1.43,-0.65 1.53,1.53 0 0 1 1.43,0.76 1.88,1.88 0 0 1 1.6,-0.76 1.58,1.58 0 0 1 1.69,1.79 z"
       style="fill:#263238"
       id="path60" />
    <path
       d="m 362.06,287.61 h -3.36 a 1.41,1.41 0 0 0 1.5,1.22 1.58,1.58 0 0 0 1.2,-0.5 l 0.41,0.48 a 2.26,2.26 0 0 1 -3.86,-1.45 2,2 0 0 1 2.08,-2.1 2,2 0 0 1 2.05,2.13 1.8,1.8 0 0 1 -0.02,0.22 z m -3.36,-0.53 h 2.66 a 1.34,1.34 0 0 0 -2.66,0 z"
       style="fill:#263238"
       id="path61" />
    <rect
       x="313.03"
       y="344.60001"
       width="137.09"
       height="23.68"
       rx="1.45"
       style="fill:#6ddfd8"
       id="rect61" />
    <path
       d="m 369.19,353.88 h 1.55 v 4.25 h 2.62 v 1.23 h -4.17 z"
       style="fill:#ffffff"
       id="path62" />
    <path
       d="m 373.61,357.23 a 2.4,2.4 0 1 1 2.4,2.2 2.22,2.22 0 0 1 -2.4,-2.2 z m 3.29,0 a 0.89,0.89 0 0 0 -0.89,-1 1,1 0 0 0 0,2 0.89,0.89 0 0 0 0.89,-1 z"
       style="fill:#ffffff"
       id="path63" />
    <path
       d="m 383.65,355.11 v 3.47 c 0,1.61 -0.91,2.36 -2.49,2.36 a 3.69,3.69 0 0 1 -2.1,-0.55 l 0.54,-1 a 2.46,2.46 0 0 0 1.43,0.45 c 0.8,0 1.13,-0.36 1.13,-1 v -0.14 a 1.59,1.59 0 0 1 -1.26,0.5 2.05,2.05 0 1 1 0,-4.1 1.52,1.52 0 0 1 1.33,0.59 v -0.52 z m -1.47,2 a 0.86,0.86 0 0 0 -0.92,-0.86 0.87,0.87 0 1 0 0,1.73 0.86,0.86 0 0 0 0.92,-0.9 z"
       style="fill:#ffffff"
       id="path64" />
    <path
       d="m 387,353.88 h 1.55 v 5.48 H 387 Z"
       style="fill:#ffffff"
       id="path65" />
    <path
       d="m 394.05,356.93 v 2.43 h -1.49 v -2.19 c 0,-0.61 -0.27,-0.87 -0.7,-0.87 -0.43,0 -0.84,0.3 -0.84,1 v 2.06 h -1.49 v -4.25 H 391 v 0.46 a 1.81,1.81 0 0 1 1.34,-0.53 1.66,1.66 0 0 1 1.71,1.89 z"
       style="fill:#ffffff"
       id="path66" />
    <path
       d="m 323.49,319.9 a 2.06,2.06 0 1 1 -2.06,-2.06 2.06,2.06 0 0 1 2.06,2.06 z"
       style="fill:#263238"
       id="path67" />
    <path
       d="m 330,319.9 a 2.06,2.06 0 1 1 -2.06,-2.06 2.06,2.06 0 0 1 2.06,2.06 z"
       style="fill:#263238"
       id="path68" />
    <path
       d="m 336.45,319.9 a 2.06,2.06 0 1 1 -2.06,-2.06 2.06,2.06 0 0 1 2.06,2.06 z"
       style="fill:#263238"
       id="path69" />
    <path
       d="m 342.93,319.9 a 2.06,2.06 0 1 1 -2.06,-2.06 2.06,2.06 0 0 1 2.06,2.06 z"
       style="fill:#263238"
       id="path70" />
    <path
       d="m 349.42,319.9 a 2.07,2.07 0 1 1 -2.07,-2.06 2.07,2.07 0 0 1 2.07,2.06 z"
       style="fill:#263238"
       id="path71" />
    <path
       d="m 355.9,319.9 a 2.07,2.07 0 1 1 -2.06,-2.06 2.06,2.06 0 0 1 2.06,2.06 z"
       style="fill:#263238"
       id="path72" />
    <path
       d="m 362.38,319.9 a 2.06,2.06 0 1 1 -2.06,-2.06 2.06,2.06 0 0 1 2.06,2.06 z"
       style="fill:#263238"
       id="path73" />
    <path
       d="m 368.86,319.9 a 2.06,2.06 0 1 1 -2.06,-2.06 2.06,2.06 0 0 1 2.06,2.06 z"
       style="fill:#263238"
       id="path74" />
    <circle
       cx="380.92001"
       cy="211.56"
       r="35.740002"
       transform="rotate(-80.88,380.94777,211.56095)"
       style="fill:#fafafa"
       id="circle75" />
    <path
       d="m 416.66,211.56 c 0,0 0,-0.19 -0.06,-0.57 -0.06,-0.38 -0.06,-1 -0.11,-1.7 0,-0.37 -0.05,-0.79 -0.07,-1.25 -0.02,-0.46 -0.15,-0.95 -0.23,-1.49 a 24.91,24.91 0 0 0 -0.75,-3.69 33.89,33.89 0 0 0 -4,-9.47 35.68,35.68 0 0 0 -24,-16.72 32.8,32.8 0 0 0 -4.49,-0.52 c -0.76,0 -1.53,-0.1 -2.31,-0.09 l -2.35,0.12 c -0.4,0 -0.79,0 -1.19,0.08 l -1.18,0.18 c -0.79,0.13 -1.6,0.23 -2.39,0.39 a 39.3,39.3 0 0 0 -4.74,1.39 36.28,36.28 0 0 0 -4.62,2 c -0.75,0.4 -1.47,0.88 -2.21,1.32 a 18.16,18.16 0 0 0 -2.15,1.47 33,33 0 0 0 -7.5,7.54 34.24,34.24 0 0 0 -5.07,9.77 35.19,35.19 0 0 0 0,22.4 l 1,2.63 1.2,2.5 a 10.88,10.88 0 0 0 0.66,1.21 l 0.72,1.18 0.71,1.16 0.82,1.1 a 39.34,39.34 0 0 0 3.48,4.11 40.4,40.4 0 0 0 4,3.42 19,19 0 0 0 2.14,1.48 c 0.75,0.44 1.47,0.92 2.21,1.32 a 37,37 0 0 0 4.63,2 39.3,39.3 0 0 0 4.74,1.39 c 0.79,0.16 1.6,0.25 2.39,0.39 l 1.18,0.18 c 0.4,0 0.79,0 1.19,0.08 l 2.35,0.12 c 0.78,0 1.55,-0.07 2.31,-0.09 a 33.13,33.13 0 0 0 4.5,-0.52 35.69,35.69 0 0 0 24,-16.72 34.13,34.13 0 0 0 4,-9.47 24.91,24.91 0 0 0 0.75,-3.69 c 0.08,-0.54 0.18,-1 0.23,-1.49 0.05,-0.49 0.05,-0.88 0.07,-1.25 0.05,-0.73 0.09,-1.3 0.11,-1.7 0.02,-0.4 0.06,-0.58 0.06,-0.58 0,0 0,0.2 0,0.58 0,0.38 0,1 -0.06,1.71 0,0.37 0,0.79 -0.05,1.25 -0.05,0.46 -0.14,1 -0.21,1.5 a 24.46,24.46 0 0 1 -0.7,3.71 33.75,33.75 0 0 1 -3.91,9.58 35.87,35.87 0 0 1 -24.17,17 32.32,32.32 0 0 1 -4.55,0.54 c -0.78,0 -1.56,0.11 -2.34,0.1 l -2.38,-0.12 c -0.4,0 -0.81,0 -1.21,-0.07 l -1.2,-0.18 c -0.8,-0.14 -1.61,-0.23 -2.42,-0.39 a 39.21,39.21 0 0 1 -9.5,-3.46 c -0.76,-0.41 -1.49,-0.89 -2.24,-1.33 a 17.83,17.83 0 0 1 -2.17,-1.5 39.21,39.21 0 0 1 -4.09,-3.46 40.48,40.48 0 0 1 -3.53,-4.17 l -0.83,-1.11 -0.73,-1.18 -0.72,-1.19 a 9.77,9.77 0 0 1 -0.67,-1.23 l -1.23,-2.54 c -0.32,-0.89 -0.65,-1.78 -1,-2.67 a 35.71,35.71 0 0 1 0,-22.72 34.6,34.6 0 0 1 5.15,-9.91 41.78,41.78 0 0 1 3.53,-4.17 40.57,40.57 0 0 1 4.09,-3.47 19,19 0 0 1 2.17,-1.49 c 0.75,-0.44 1.48,-0.92 2.24,-1.33 a 39.21,39.21 0 0 1 9.5,-3.46 c 0.81,-0.16 1.62,-0.25 2.42,-0.39 l 1.2,-0.18 c 0.4,-0.05 0.81,-0.05 1.2,-0.07 l 2.38,-0.12 c 0.79,0 1.57,0.07 2.35,0.1 a 33.53,33.53 0 0 1 4.54,0.53 36,36 0 0 1 24.18,17 34.12,34.12 0 0 1 3.91,9.57 24.57,24.57 0 0 1 0.7,3.72 c 0.07,0.54 0.16,1 0.21,1.5 0.05,0.5 0,0.88 0.05,1.25 0,0.74 0,1.3 0.06,1.71 0.06,0.41 0,0.64 0,0.64 z"
       style="fill:#263238"
       id="path76" />
    <path
       d="m 384.47,212.09 a 8.18,8.18 0 1 0 -6,0 c -12.57,1.78 -12,14.61 -12,14.61 l 29.73,0.13 c 0,0 0.73,-12.97 -11.73,-14.74 z"
       style="fill:#e0e0e0"
       id="path77" />
    <path
       d="m 572.15,166.08 h -16.53 a 1.18,1.18 0 0 1 -1.18,-1.18 v -8.22 a 1.18,1.18 0 0 1 1.17,-1.18 h 16.54 a 0.29,0.29 0 0 1 0.21,0.09 0.27,0.27 0 0 1 0.09,0.21 v 2.71 h 1.77 a 0.3,0.3 0 0 1 0.3,0.3 v 4 a 0.3,0.3 0 0 1 -0.3,0.3 h -1.77 v 2.71 a 0.3,0.3 0 0 1 -0.3,0.26 z m -0.31,-10 h -16.23 a 0.57,0.57 0 0 0 -0.57,0.58 v 8.22 a 0.58,0.58 0 0 0 0.58,0.58 h 16.22 v -2.71 a 0.3,0.3 0 0 1 0.31,-0.3 h 1.76 v -3.36 h -1.76 a 0.3,0.3 0 0 1 -0.31,-0.3 z"
       style="fill:#263238"
       id="path111" />
    <path
       d="m 556.39,163.12 v -4.66 a 1,1 0 0 1 1,-1 h 7.77 a 1,1 0 0 1 1,1 v 4.66 a 1,1 0 0 1 -1,1 h -7.76 a 1,1 0 0 1 -1.01,-1 z"
       style="fill:#263238"
       id="path112" />
    <rect
       x="484.29999"
       y="412.20001"
       width="86.220001"
       height="7.3800001"
       style="fill:#6ddfd8"
       id="rect112" />
    <rect
       x="564.04999"
       y="412.20001"
       width="1.47"
       height="7.3800001"
       style="fill:#ffffff"
       id="rect113" />
    <rect
       x="560.96002"
       y="412.20001"
       width="1.47"
       height="7.3800001"
       style="fill:#ffffff"
       id="rect114" />
    <rect
       x="492.29001"
       y="412.20001"
       width="1.47"
       height="7.3800001"
       style="fill:#ffffff"
       id="rect115" />
    <rect
       x="489.20001"
       y="412.20001"
       width="1.47"
       height="7.3800001"
       style="fill:#ffffff"
       id="rect116" />
    <path
       d="m 553,417.92 c 0,0 0.1,0 0.29,0 a 1.36,1.36 0 0 0 0.71,-0.41 1.34,1.34 0 0 0 0.31,-0.52 1.64,1.64 0 0 0 0,-0.74 1.31,1.31 0 0 0 -0.38,-0.76 1.42,1.42 0 0 0 -0.87,-0.4 h -11.87 -39.38 a 1.34,1.34 0 0 0 -1.33,1.29 1.57,1.57 0 0 0 0.1,0.68 1.35,1.35 0 0 0 1,0.79 5.4,5.4 0 0 0 0.7,0 h 34.42 11.94 v 0 H 536.7 L 519,418 h -16.69 a 4.36,4.36 0 0 1 -0.72,0 1.44,1.44 0 0 1 -1.12,-0.86 1.68,1.68 0 0 1 -0.12,-0.73 1.47,1.47 0 0 1 1.46,-1.42 h 39.38 11.94 a 1.49,1.49 0 0 1 0.9,0.42 1.43,1.43 0 0 1 0.38,0.79 1.68,1.68 0 0 1 -0.06,0.75 1.32,1.32 0 0 1 -0.32,0.53 1.34,1.34 0 0 1 -0.73,0.4 h -0.22 z"
       style="fill:#ffffff"
       id="path116" />
    <rect
       x="488.51999"
       y="419.5"
       width="80.050003"
       height="10.57"
       style="fill:#455a64"
       id="rect117" />
    <rect
       x="488.51999"
       y="420.79999"
       width="80.050003"
       height="7.5"
       style="fill:#ebebeb"
       id="rect118" />
    <path
       d="m 567.88,421 c 0,0 -17.65,0.07 -39.4,0.07 -21.75,0 -39.4,0 -39.4,-0.07 0,-0.07 17.64,-0.06 39.4,-0.06 21.76,0 39.4,0.06 39.4,0.06 z"
       style="fill:#263238"
       id="path118" />
    <path
       d="m 567.88,423.25 c 0,0 -17.65,0.07 -39.4,0.07 -21.75,0 -39.4,0 -39.4,-0.07 0,-0.07 17.64,-0.06 39.4,-0.06 21.76,0 39.4,0.03 39.4,0.06 z"
       style="fill:#263238"
       id="path119" />
    <path
       d="m 567.88,425.49 c 0,0 -17.65,0.07 -39.4,0.07 -21.75,0 -39.4,0 -39.4,-0.07 0,-0.07 17.64,-0.06 39.4,-0.06 21.76,0 39.4,0.02 39.4,0.06 z"
       style="fill:#263238"
       id="path120" />
    <path
       d="m 567.88,427.73 c 0,0 -17.65,0.06 -39.4,0.06 -21.75,0 -39.4,0 -39.4,-0.06 0,-0.06 17.64,-0.06 39.4,-0.06 21.76,0 39.4,0.02 39.4,0.06 z"
       style="fill:#263238"
       id="path121" />
    <rect
       x="492.32001"
       y="390.51001"
       width="10.97"
       height="20.790001"
       transform="rotate(180,497.81,400.905)"
       style="fill:#fafafa"
       id="rect121" />
    <rect
       x="503.29999"
       y="389.78"
       width="58.880001"
       height="22.549999"
       transform="rotate(180,532.74,401.05)"
       style="fill:#263238"
       id="rect122" />
    <path
       d="m 491.46,412.32 h 13.25 v -1.46 h -13.25 a 0.73,0.73 0 0 0 -0.73,0.73 v 0 a 0.73,0.73 0 0 0 0.73,0.73 z"
       style="fill:#263238"
       id="path122" />
    <path
       d="m 491.46,391.24 h 13.25 v -1.46 h -13.25 a 0.73,0.73 0 0 0 -0.73,0.73 v 0 a 0.73,0.73 0 0 0 0.73,0.73 z"
       style="fill:#263238"
       id="path123" />
    <path
       d="m 492.32,393.3 c 0,0 2.46,0.06 5.49,0.06 3.03,0 5.49,0 5.49,-0.06 0,-0.06 -2.46,-0.07 -5.49,-0.07 -3.03,0 -5.49,0.03 -5.49,0.07 z"
       style="fill:#e0e0e0"
       id="path124" />
    <path
       d="m 492.32,396 c 0,0 2.46,0.07 5.49,0.07 3.03,0 5.49,0 5.49,-0.07 0,-0.07 -2.46,-0.06 -5.49,-0.06 -3.03,0 -5.49,-0.01 -5.49,0.06 z"
       style="fill:#e0e0e0"
       id="path125" />
    <path
       d="m 492.32,398.63 c 0,0 2.46,0.06 5.49,0.06 3.03,0 5.49,0 5.49,-0.06 0,-0.06 -2.46,-0.06 -5.49,-0.06 -3.03,0 -5.49,0.03 -5.49,0.06 z"
       style="fill:#e0e0e0"
       id="path126" />
    <path
       d="m 492.32,401.3 c 0,0 2.46,0.06 5.49,0.06 3.03,0 5.49,0 5.49,-0.06 0,-0.06 -2.46,-0.06 -5.49,-0.06 -3.03,0 -5.49,0.02 -5.49,0.06 z"
       style="fill:#e0e0e0"
       id="path127" />
    <path
       d="m 492.32,404 c 0,0 2.46,0.06 5.49,0.06 3.03,0 5.49,0 5.49,-0.06 0,-0.06 -2.46,-0.07 -5.49,-0.07 -3.03,0 -5.49,0 -5.49,0.07 z"
       style="fill:#e0e0e0"
       id="path128" />
    <path
       d="m 492.32,406.63 c 0,0 2.46,0.06 5.49,0.06 3.03,0 5.49,0 5.49,-0.06 0,-0.06 -2.46,-0.06 -5.49,-0.06 -3.03,0 -5.49,0.03 -5.49,0.06 z"
       style="fill:#e0e0e0"
       id="path129" />
    <path
       d="m 492.32,409.3 c 0,0 2.46,0.06 5.49,0.06 3.03,0 5.49,0 5.49,-0.06 0,-0.06 -2.46,-0.06 -5.49,-0.06 -3.03,0 -5.49,0.02 -5.49,0.06 z"
       style="fill:#e0e0e0"
       id="path130" />
    <rect
       x="511.76999"
       y="399.14001"
       width="43.09"
       height="3.8099999"
       style="fill:#ffffff"
       id="rect130" />
  </g>
  <g
     id="freepik--plant-2--inject-7">
    <path
       d="m 717.43,237.47 c -11.75,6.09 -20.76,16.57 -27.24,28.11 -6.48,11.54 -10.65,24.2 -14.79,36.77 l -3.62,64.84 c 13.67,-23.27 24.65,-50.61 27.61,-77.43 l -9.1,-0.81 c 6.11,-0.93 11.23,-5.35 14.49,-10.6 3.26,-5.25 4.93,-11.28 6.57,-17.23 l -11.1,1.65 a 41.13,41.13 0 0 0 17.18,-25.3 z"
       style="fill:#455a64"
       id="path131" />
    <g
       style="opacity:0.3"
       id="g132">
      <path
         d="m 717.43,237.47 c -11.75,6.09 -20.76,16.57 -27.24,28.11 -6.48,11.54 -10.65,24.2 -14.79,36.77 l -3.62,64.84 c 13.67,-23.27 24.65,-50.61 27.61,-77.43 l -9.1,-0.81 c 6.11,-0.93 11.23,-5.35 14.49,-10.6 3.26,-5.25 4.93,-11.28 6.57,-17.23 l -11.1,1.65 a 41.13,41.13 0 0 0 17.18,-25.3 z"
         id="path132" />
    </g>
    <path
       d="m 669.76,382.38 c 0,0 -29.68,-35.53 -29.34,-69.44 h 12 c 0,0 -13,-8.56 -12,-13.36 1,-4.8 1.37,-22.95 1.37,-22.95 l 11,2.74 c 0,0 -8.22,-4.11 -9.25,-10.62 -1.03,-6.51 2.4,-36.65 2.4,-36.65 0,0 13.36,14.05 17.47,28.43 4.11,14.38 14.9,31.17 11.73,75 -3.17,43.83 -5.38,46.85 -5.38,46.85 z"
       style="fill:#455a64"
       id="path133" />
    <path
       d="m 684.8,385.73 c 0,0 32.2,-21.42 39.3,-48.73 l -9.64,-2.62 c 0,0 12.34,-4 12.57,-8.12 0.23,-4.12 3.91,-18.75 3.91,-18.75 l -9.41,-0.2 c 0,0 7.51,-1.5 9.76,-6.51 2.25,-5.01 6.09,-30 6.09,-30 0,0 -13.81,8.37 -20.26,19 -6.45,10.63 -18.8,21.8 -25.85,57.74 -7.05,35.94 -6.47,38.19 -6.47,38.19 z"
       style="fill:#455a64"
       id="path134" />
    <path
       d="m 654,263.07 a 2.63,2.63 0 0 1 0.1,0.37 c 0.07,0.28 0.15,0.64 0.26,1.1 l 0.94,4.21 c 0.41,1.83 0.89,4.08 1.4,6.69 0.51,2.61 1.15,5.58 1.75,8.88 1.27,6.59 2.61,14.47 4,23.23 1.39,8.76 2.67,18.42 3.86,28.59 1.19,10.17 2.06,19.88 2.76,28.72 0.7,8.84 1.15,16.82 1.42,23.53 0.16,3.35 0.24,6.38 0.33,9 0.09,2.62 0.13,5 0.15,6.83 0.02,1.83 0,3.3 0,4.32 v 1.12 a 1.65,1.65 0 0 1 0,0.39 1.88,1.88 0 0 1 0,-0.38 c 0,-0.28 0,-0.65 -0.05,-1.13 0,-1 -0.09,-2.46 -0.15,-4.31 -0.06,-1.85 -0.13,-4.17 -0.25,-6.83 -0.12,-2.66 -0.21,-5.69 -0.4,-9 -0.32,-6.69 -0.85,-14.66 -1.53,-23.5 -0.68,-8.84 -1.64,-18.54 -2.8,-28.7 -1.16,-10.16 -2.51,-19.82 -3.82,-28.58 -1.31,-8.76 -2.65,-16.64 -3.88,-23.23 -0.57,-3.3 -1.16,-6.28 -1.66,-8.89 -0.5,-2.61 -0.94,-4.87 -1.32,-6.71 l -0.84,-4.23 c -0.09,-0.47 -0.16,-0.83 -0.21,-1.11 A 2,2 0 0 1 654,263.07 Z"
       style="fill:#263238"
       id="path135" />
    <path
       d="m 665.64,404.13 c 0,0 -27.16,-30.82 -35.59,-49.44 l 6.36,-2.72 c -4.61,0.76 -9.34,-1.23 -12.92,-4.24 -3.58,-3.01 -6.2,-7 -8.78,-10.88 l 8.39,-1.41 a 31.19,31.19 0 0 1 -18.33,-14.2 c 9.9,1.63 18.85,7.07 26.23,13.86 6,5.5 11,11.89 15.89,18.42 a 62.86,62.86 0 0 1 6.18,10.14 c 4.56,9.44 12.58,29.15 12.57,40.47 z"
       style="fill:#455a64"
       id="path136" />
    <path
       d="m 724.53,288.72 a 1.91,1.91 0 0 1 -0.13,0.31 c -0.11,0.23 -0.24,0.52 -0.42,0.89 -0.39,0.82 -1,2 -1.65,3.42 -1.46,3 -3.53,7.26 -6,12.6 -2.47,5.34 -5.39,11.74 -8.49,18.89 -3.1,7.15 -6.34,15.09 -9.59,23.47 -3.25,8.38 -6.15,16.46 -8.7,23.83 -2.55,7.37 -4.69,14.05 -6.43,19.68 -1.74,5.63 -3.11,10.21 -4,13.37 -0.46,1.56 -0.82,2.78 -1.07,3.65 -0.12,0.39 -0.22,0.7 -0.29,0.94 a 1.72,1.72 0 0 1 -0.12,0.32 1.34,1.34 0 0 1 0.06,-0.33 c 0.07,-0.25 0.15,-0.56 0.25,-1 l 1,-3.67 c 0.85,-3.19 2.16,-7.78 3.86,-13.42 1.7,-5.64 3.83,-12.35 6.33,-19.74 2.5,-7.39 5.42,-15.45 8.66,-23.86 3.24,-8.41 6.54,-16.31 9.64,-23.47 3.1,-7.16 6,-13.54 8.59,-18.86 2.59,-5.32 4.66,-9.6 6.17,-12.53 l 1.75,-3.37 c 0.19,-0.37 0.35,-0.65 0.46,-0.87 0.11,-0.22 0.11,-0.26 0.12,-0.25 z"
       style="fill:#263238"
       id="path137" />
    <path
       d="m 667.94,417.34 a 3.2,3.2 0 0 1 -0.12,-0.57 l -0.27,-1.64 c -0.1,-0.71 -0.23,-1.58 -0.42,-2.58 -0.19,-1 -0.35,-2.16 -0.63,-3.41 -0.48,-2.52 -1.18,-5.5 -2.07,-8.78 -0.89,-3.28 -2,-6.83 -3.42,-10.5 -1.42,-3.67 -2.9,-7.08 -4.37,-10.14 -1.47,-3.06 -2.95,-5.74 -4.25,-8 -0.63,-1.12 -1.25,-2.1 -1.78,-3 -0.53,-0.9 -1,-1.62 -1.39,-2.22 l -0.89,-1.4 a 4.05,4.05 0 0 1 -0.28,-0.51 c 0,0 0.14,0.14 0.37,0.45 0.23,0.31 0.57,0.8 1,1.34 0.43,0.54 0.92,1.32 1.47,2.18 0.55,0.86 1.2,1.83 1.85,2.94 1.34,2.2 2.83,4.89 4.36,7.94 1.53,3.05 3,6.49 4.43,10.17 1.43,3.68 2.5,7.26 3.39,10.55 0.89,3.29 1.53,6.3 2,8.84 0.25,1.26 0.4,2.42 0.56,3.43 0.16,1.01 0.26,1.89 0.34,2.61 0.08,0.72 0.12,1.21 0.16,1.65 a 2.33,2.33 0 0 1 -0.04,0.65 z"
       style="fill:#263238"
       id="path138" />
    <rect
       x="644.34003"
       y="410.09"
       width="59.439999"
       height="12.13"
       style="fill:#6ddfd8"
       id="rect138" />
    <polygon
       points="692.35,459.08 698.34,422.21 650,422.21 656.43,459.08 "
       style="fill:#6ddfd8"
       id="polygon138" />
    <path
       d="m 700.13,422.21 c 0,0.15 -11.24,0.26 -25.11,0.26 -13.87,0 -25.11,-0.11 -25.11,-0.26 0,-0.15 11.24,-0.21 25.09,-0.21 13.85,0 25.13,0.07 25.13,0.21 z"
       style="fill:#263238"
       id="path139" />
  </g>
  <g
     id="freepik--plant-1--inject-7">
    <polygon
       points="87.5,459.05 94.78,424.07 50.72,423.56 56.12,459.05 "
       style="fill:#6ddfd8"
       id="polygon139" />
    <path
       d="m 90.4,446.31 c 0,0.1 -8,0.18 -18,0.18 -10,0 -18,-0.08 -18,-0.18 0,-0.1 8,-0.19 18,-0.19 10,0 18,0.08 18,0.19 z"
       style="fill:#fafafa"
       id="path140" />
    <path
       d="m 90.52,444.56 c 0,0.1 -8.1,0.18 -18.08,0.18 -9.98,0 -18.08,-0.08 -18.08,-0.18 0,-0.1 8.09,-0.18 18.08,-0.18 9.99,0 18.08,0.08 18.08,0.18 z"
       style="fill:#fafafa"
       id="path141" />
    <path
       d="m 90.46,442.59 c 0,0.1 -8.1,0.18 -18.08,0.18 -9.98,0 -18.09,-0.08 -18.09,-0.18 0,-0.1 8.1,-0.19 18.09,-0.19 9.99,0 18.08,0.09 18.08,0.19 z"
       style="fill:#fafafa"
       id="path142" />
    <path
       d="m 59.72,457 a 57.24,57.24 0 0 1 -1.56,-9 28.3,28.3 0 0 1 1,4.47 27.28,27.28 0 0 1 0.56,4.53 z"
       style="fill:#fafafa"
       id="path143" />
    <path
       d="m 61.86,456.65 a 32.2,32.2 0 0 1 -0.39,-4.36 33.11,33.11 0 0 1 -0.2,-4.37 22.4,22.4 0 0 1 0.57,4.35 21.37,21.37 0 0 1 0.02,4.38 z"
       style="fill:#fafafa"
       id="path144" />
    <path
       d="m 65.75,456.65 a 21.53,21.53 0 0 1 -0.82,-4.47 23.11,23.11 0 0 1 -0.24,-4.54 36.25,36.25 0 0 1 0.61,4.5 39.59,39.59 0 0 1 0.45,4.51 z"
       style="fill:#fafafa"
       id="path145" />
    <path
       d="m 68.48,456.84 a 22.46,22.46 0 0 1 -0.43,-4.55 21.6,21.6 0 0 1 0.14,-4.56 40.69,40.69 0 0 1 0.22,4.55 38,38 0 0 1 0.07,4.56 z"
       style="fill:#fafafa"
       id="path146" />
    <path
       d="M 73.32,456.65 A 24.51,24.51 0 0 1 72.99,452.34 26.46,26.46 0 0 1 73,448 a 24.56,24.56 0 0 1 0.33,4.32 25,25 0 0 1 -0.01,4.33 z"
       style="fill:#fafafa"
       id="path147" />
    <path
       d="m 76.85,456.84 a 53.86,53.86 0 0 1 0.07,-8.92 53.86,53.86 0 0 1 -0.07,8.92 z"
       style="fill:#fafafa"
       id="path148" />
    <path
       d="m 80.16,456.36 a 30,30 0 0 1 0.27,-4.66 30.32,30.32 0 0 1 0.63,-4.62 30,30 0 0 1 -0.27,4.66 30.32,30.32 0 0 1 -0.63,4.62 z"
       style="fill:#fafafa"
       id="path149" />
    <path
       d="m 84.43,455.9 a 15.38,15.38 0 0 1 0.53,-4 16.21,16.21 0 0 1 1.16,-3.82 35.29,35.29 0 0 1 -0.8,3.9 36.46,36.46 0 0 1 -0.89,3.92 z"
       style="fill:#fafafa"
       id="path150" />
    <path
       d="m 81.41,353.51 c 0,0 0,0.06 0,0.18 l -0.15,0.5 -0.59,1.91 c -0.27,0.83 -0.59,1.85 -0.93,3 -0.34,1.15 -0.75,2.54 -1.13,4.05 -0.38,1.51 -0.83,3.15 -1.22,4.94 -0.39,1.79 -0.8,3.7 -1.21,5.72 -0.75,4 -1.44,8.52 -1.92,13.24 -0.48,4.72 -0.67,9.26 -0.74,13.37 0,2.06 0,4 0.06,5.85 0.06,1.85 0.13,3.53 0.22,5.08 0.09,1.55 0.22,3 0.31,4.19 0.09,1.19 0.2,2.3 0.3,3.16 0.1,0.86 0.16,1.51 0.21,2 v 0.52 0.18 c 0,0 0,-0.06 0,-0.18 0,-0.12 0,-0.3 -0.08,-0.51 -0.07,-0.49 -0.16,-1.15 -0.28,-2 -0.12,-0.85 -0.25,-1.92 -0.36,-3.16 -0.11,-1.24 -0.28,-2.63 -0.37,-4.19 -0.09,-1.56 -0.22,-3.26 -0.27,-5.09 -0.05,-1.83 -0.08,-3.8 -0.09,-5.86 0,-4.13 0.25,-8.66 0.71,-13.4 0.46,-4.74 1.18,-9.22 2,-13.28 0.41,-2 0.79,-3.94 1.24,-5.72 0.45,-1.78 0.86,-3.44 1.27,-4.94 0.41,-1.5 0.83,-2.85 1.19,-4 0.36,-1.15 0.69,-2.2 1,-3 l 0.66,-1.9 c 0.08,-0.19 0.13,-0.36 0.18,-0.49 0.05,-0.13 -0.02,-0.17 -0.01,-0.17 z"
       style="fill:#455a64"
       id="path151" />
    <path
       d="m 75.74,375.49 a 11.68,11.68 0 0 1 4.88,-6.16 2.82,2.82 0 0 1 2.58,-0.48 c 1.1,0.53 1.19,2.07 0.86,3.25 a 8.62,8.62 0 0 1 -3.55,4.84 7.26,7.26 0 0 1 -5.33,1.34"
       style="fill:#455a64"
       id="path152" />
    <path
       d="m 73.84,390.33 c 0.81,-3.06 3.25,-7.42 5.79,-9.31 a 3.58,3.58 0 0 1 1.32,-0.7 1.5,1.5 0 0 1 1.4,0.3 2.16,2.16 0 0 1 0.32,2 12.35,12.35 0 0 1 -9.16,9.22"
       style="fill:#455a64"
       id="path153" />
    <path
       d="m 73.31,403.4 a 18,18 0 0 1 5.84,-7.35 2.8,2.8 0 0 1 2,-0.73 c 1.11,0.2 1.62,1.56 1.52,2.68 -0.2,2.31 -2,4.16 -3.79,5.6 a 23.32,23.32 0 0 1 -5.41,2.78"
       style="fill:#455a64"
       id="path154" />
    <path
       d="m 73.61,412.79 a 17.13,17.13 0 0 1 5,-5.66 3.53,3.53 0 0 1 1.49,-0.67 1.52,1.52 0 0 1 1.46,0.56 c 0.5,0.73 0,1.72 -0.51,2.43 a 14.17,14.17 0 0 1 -7.09,5.2"
       style="fill:#455a64"
       id="path155" />
    <path
       d="m 73.36,409 a 55.36,55.36 0 0 0 -7.11,-7.25 c -0.4,-0.34 -0.91,-0.7 -1.42,-0.53 a 1,1 0 0 0 -0.65,0.95 2.62,2.62 0 0 0 0.27,1.19 13.81,13.81 0 0 0 9.16,7.7"
       style="fill:#455a64"
       id="path156" />
    <path
       d="M 73.59,396.75 68,389.94 a 6.88,6.88 0 0 0 -1.81,-1.72 2.27,2.27 0 0 0 -2.38,0 2.24,2.24 0 0 0 -0.77,2.24 5.85,5.85 0 0 0 1.09,2.24 16.63,16.63 0 0 0 4.07,4.3 c 1.64,1.12 3.13,1.86 5.1,1.57"
       style="fill:#455a64"
       id="path157" />
    <path
       d="m 74.36,383 a 19.41,19.41 0 0 0 -5.62,-8.44 3.33,3.33 0 0 0 -1.46,-0.85 2.46,2.46 0 0 0 -2.56,1.8 4.6,4.6 0 0 0 0.51,3.7 9.59,9.59 0 0 0 2.62,2.79 22.3,22.3 0 0 0 6.22,3.36"
       style="fill:#455a64"
       id="path158" />
    <path
       d="m 76.6,370.72 c -0.55,-3.94 -2.6,-7.23 -5,-10.42 -0.5,-0.68 -1.2,-1.39 -2,-1.26 a 1.6,1.6 0 0 0 -1.17,1 3.63,3.63 0 0 0 -0.22,1.57 12.18,12.18 0 0 0 7.91,10.9"
       style="fill:#455a64"
       id="path159" />
    <path
       d="m 78.16,364.46 a 32.77,32.77 0 0 1 -0.21,-6.1 11,11 0 0 1 2,-5.69 4.78,4.78 0 0 1 2,-1.62 2.57,2.57 0 0 1 2.49,0.33 2.72,2.72 0 0 1 0.85,2.19 6.9,6.9 0 0 1 -0.63,2.34 c -1.49,3.58 -4,7.55 -6.56,8.55"
       style="fill:#455a64"
       id="path160" />
    <path
       d="m 53.82,369.16 a 1.66,1.66 0 0 1 0,0.5 c 0,0.37 0,0.84 0,1.44 0,0.6 0,1.38 0,2.26 0,0.88 0,1.89 0.1,3 0.1,2.22 0.32,4.86 0.65,7.78 0.33,2.92 0.86,6.11 1.55,9.43 0.69,3.32 1.53,6.44 2.37,9.25 0.84,2.81 1.73,5.31 2.53,7.38 0.38,1.05 0.78,2 1.11,2.79 0.33,0.79 0.63,1.52 0.88,2.09 0.25,0.57 0.41,1 0.56,1.32 a 3.14,3.14 0 0 1 0.17,0.47 3.06,3.06 0 0 1 -0.24,-0.44 L 63,415.14 c -0.28,-0.56 -0.6,-1.25 -0.94,-2.07 -0.34,-0.82 -0.76,-1.73 -1.16,-2.77 -0.84,-2.07 -1.73,-4.57 -2.61,-7.38 -0.88,-2.81 -1.7,-5.95 -2.41,-9.28 -0.71,-3.33 -1.18,-6.54 -1.52,-9.46 -0.34,-2.92 -0.51,-5.58 -0.58,-7.81 0,-1.11 0,-2.12 0,-3 0,-0.88 0,-1.65 0,-2.27 0,-0.62 0,-1.07 0.05,-1.44 a 4.16,4.16 0 0 1 -0.01,-0.5 z"
       style="fill:#263238"
       id="path161" />
    <path
       d="m 54.7,385.35 a 8.36,8.36 0 0 1 2,-5.25 2,2 0 0 1 1.66,-0.88 c 0.86,0.13 1.25,1.16 1.28,2 a 6.12,6.12 0 0 1 -1.38,4.06 5.15,5.15 0 0 1 -3.33,2.06"
       style="fill:#263238"
       id="path162" />
    <path
       d="m 56.6,395.86 a 14,14 0 0 1 1.93,-7.59 2.71,2.71 0 0 1 0.75,-0.76 1.11,1.11 0 0 1 1,-0.09 1.53,1.53 0 0 1 0.65,1.31 8.83,8.83 0 0 1 -4.22,8.27"
       style="fill:#263238"
       id="path163" />
    <path
       d="m 59.05,404.87 a 12.71,12.71 0 0 1 2.4,-6.26 1.93,1.93 0 0 1 1.23,-0.93 c 0.8,-0.11 1.43,0.71 1.61,1.49 0.36,1.62 -0.45,3.26 -1.38,4.63 a 16.62,16.62 0 0 1 -3.08,3.06"
       style="fill:#263238"
       id="path164" />
    <path
       d="m 61.27,411.2 a 12.4,12.4 0 0 1 2.17,-4.92 2.59,2.59 0 0 1 0.87,-0.78 1.07,1.07 0 0 1 1.12,0.07 c 0.49,0.39 0.38,1.16 0.17,1.76 a 10.11,10.11 0 0 1 -3.71,5.07"
       style="fill:#263238"
       id="path165" />
    <path
       d="m 60.28,408.66 a 38.44,38.44 0 0 0 -6.4,-3.4 1.13,1.13 0 0 0 -1.08,-0.06 0.76,0.76 0 0 0 -0.23,0.79 2,2 0 0 0 0.44,0.75 9.82,9.82 0 0 0 7.89,3.26"
       style="fill:#263238"
       id="path166" />
    <path
       d="m 57.81,400.29 -5.27,-3.44 a 4.91,4.91 0 0 0 -1.61,-0.78 1.62,1.62 0 0 0 -1.62,0.5 1.58,1.58 0 0 0 0,1.69 4.17,4.17 0 0 0 1.22,1.29 12,12 0 0 0 3.71,2.07 4.89,4.89 0 0 0 3.81,0"
       style="fill:#263238"
       id="path167" />
    <path
       d="m 55.38,390.75 a 13.89,13.89 0 0 0 -5.65,-4.53 2.23,2.23 0 0 0 -1.18,-0.27 1.76,1.76 0 0 0 -1.36,1.78 3.28,3.28 0 0 0 1.15,2.4 6.89,6.89 0 0 0 2.38,1.33 16.45,16.45 0 0 0 5,1"
       style="fill:#263238"
       id="path168" />
    <path
       d="m 54.25,381.92 a 16.19,16.19 0 0 0 -5.63,-6 c -0.49,-0.35 -1.12,-0.69 -1.65,-0.42 a 1.12,1.12 0 0 0 -0.58,0.93 2.55,2.55 0 0 0 0.19,1.12 8.71,8.71 0 0 0 7.73,5.72"
       style="fill:#263238"
       id="path169" />
    <path
       d="m 54,377.32 a 23.16,23.16 0 0 1 -1.45,-4.12 7.76,7.76 0 0 1 0.15,-4.3 3.36,3.36 0 0 1 1,-1.54 1.82,1.82 0 0 1 1.76,-0.31 1.91,1.91 0 0 1 1.05,1.31 4.78,4.78 0 0 1 0.08,1.73 c -0.25,2.75 -1.08,6 -2.63,7.23"
       style="fill:#263238"
       id="path170" />
    <path
       d="m 93.5,368.82 a 2.42,2.42 0 0 1 0,0.5 c 0,0.36 0,0.84 0.06,1.43 0.06,0.59 0,1.39 0,2.27 0,0.88 0,1.89 -0.06,3 -0.06,2.22 -0.25,4.87 -0.57,7.8 -0.32,2.93 -0.83,6.14 -1.52,9.47 -0.69,3.33 -1.55,6.46 -2.41,9.28 -0.86,2.82 -1.78,5.31 -2.61,7.38 -0.4,1 -0.82,2 -1.16,2.77 -0.34,0.77 -0.67,1.51 -0.94,2.07 -0.27,0.56 -0.47,1 -0.62,1.29 a 4,4 0 0 1 -0.24,0.44 1.51,1.51 0 0 1 0.17,-0.47 l 0.56,-1.32 c 0.25,-0.57 0.55,-1.27 0.88,-2.09 0.33,-0.82 0.72,-1.74 1.1,-2.79 0.81,-2.07 1.67,-4.58 2.53,-7.38 0.86,-2.8 1.67,-5.94 2.38,-9.26 0.71,-3.32 1.18,-6.51 1.54,-9.43 0.36,-2.92 0.55,-5.55 0.65,-7.77 0.07,-1.11 0.08,-2.12 0.11,-3 0.03,-0.88 0,-1.65 0,-2.27 0,-0.62 0,-1.07 0,-1.43 a 3.21,3.21 0 0 1 0.15,-0.49 z"
       style="fill:#455a64"
       id="path171" />
    <path
       d="m 92.63,385 a 8.27,8.27 0 0 0 -2,-5.24 2,2 0 0 0 -1.65,-0.88 c -0.86,0.12 -1.26,1.15 -1.29,2 a 6.12,6.12 0 0 0 1.38,4.12 5.16,5.16 0 0 0 3.34,2"
       style="fill:#455a64"
       id="path172" />
    <path
       d="m 90.73,395.52 a 14,14 0 0 0 -1.94,-7.59 2.59,2.59 0 0 0 -0.75,-0.76 1.07,1.07 0 0 0 -1,-0.1 1.56,1.56 0 0 0 -0.65,1.32 8.85,8.85 0 0 0 4.25,8.25"
       style="fill:#455a64"
       id="path173" />
    <path
       d="m 88.28,404.53 a 12.91,12.91 0 0 0 -2.4,-6.26 2,2 0 0 0 -1.23,-0.94 c -0.8,-0.1 -1.44,0.71 -1.61,1.5 -0.36,1.62 0.44,3.26 1.37,4.63 a 17,17 0 0 0 3.09,3.05"
       style="fill:#455a64"
       id="path174" />
    <path
       d="m 86.05,410.86 a 12.42,12.42 0 0 0 -2.16,-4.93 2.6,2.6 0 0 0 -0.88,-0.77 1.08,1.08 0 0 0 -1.11,0.06 c -0.5,0.39 -0.39,1.17 -0.18,1.76 a 10.11,10.11 0 0 0 3.71,5.07"
       style="fill:#455a64"
       id="path175" />
    <path
       d="m 87,408.31 a 40.41,40.41 0 0 1 6.4,-3.4 1.16,1.16 0 0 1 1.08,-0.06 0.75,0.75 0 0 1 0.24,0.79 1.84,1.84 0 0 1 -0.44,0.75 9.84,9.84 0 0 1 -7.89,3.28"
       style="fill:#455a64"
       id="path176" />
    <path
       d="m 89.52,399.94 5.27,-3.43 a 4.67,4.67 0 0 1 1.6,-0.78 1.45,1.45 0 0 1 1.67,2.19 4.32,4.32 0 0 1 -1.23,1.29 11.62,11.62 0 0 1 -3.7,2.06 4.85,4.85 0 0 1 -3.81,0"
       style="fill:#455a64"
       id="path177" />
    <path
       d="m 92,390.41 a 14,14 0 0 1 5.64,-4.54 2.38,2.38 0 0 1 1.19,-0.26 1.75,1.75 0 0 1 1.35,1.77 3.29,3.29 0 0 1 -1.18,2.41 7.2,7.2 0 0 1 -2.39,1.33 16,16 0 0 1 -4.95,0.94"
       style="fill:#455a64"
       id="path178" />
    <path
       d="m 93.07,381.57 a 16.32,16.32 0 0 1 5.63,-6 1.74,1.74 0 0 1 1.66,-0.43 1.18,1.18 0 0 1 0.58,0.94 2.7,2.7 0 0 1 -0.19,1.12 8.7,8.7 0 0 1 -7.75,5.69"
       style="fill:#455a64"
       id="path179" />
    <path
       d="m 93.36,377 a 23.35,23.35 0 0 0 1.45,-4.11 7.79,7.79 0 0 0 -0.16,-4.31 3.29,3.29 0 0 0 -1,-1.53 1.82,1.82 0 0 0 -1.77,-0.31 2,2 0 0 0 -1,1.3 5,5 0 0 0 -0.07,1.73 c 0.24,2.76 1.08,6 2.63,7.23"
       style="fill:#455a64"
       id="path180" />
    <path
       d="m 47.12,416.53 v 6.64 a 2.61,2.61 0 0 0 2.61,2.61 h 45.45 a 2.61,2.61 0 0 0 2.61,-2.61 v -6.64 z"
       style="fill:#6ddfd8"
       id="path181" />
    <g
       style="opacity:0.4"
       id="g181">
      <polygon
         points="93.37,430.89 94.43,425.78 51.06,425.78 51.43,427.9 "
         id="polygon181" />
    </g>
  </g>
  <g
     id="freepik--Character--inject-7"
     inkscape:export-filename="./freepik--Character--inject-7.svg"
     inkscape:export-xdpi="96"
     inkscape:export-ydpi="96">
    <path
       d="m 164.71,224.65 -6.7,-2 c -8.11,-2.83 -14.82,-0.65 -19.21,4.83 -4.39,5.48 -6.09,12.75 -5.84,19.77 0.16,4.52 1,9.28 -0.79,13.42 a 23.91,23.91 0 0 1 -4.45,6.07 17.79,17.79 0 0 0 -4.1,6.29 c -0.75,2.41 -0.38,5.33 1.54,7 a 14.59,14.59 0 0 1 2.49,2 c 0.9,1.16 0.82,2.78 0.91,4.25 a 15.5,15.5 0 0 0 29.73,5.19 c 2,-4.59 1.6,-9.78 1.4,-14.76 a 192.65,192.65 0 0 1 5.02,-52.06 z"
       style="fill:#263238"
       id="path182" />
    <path
       d="m 179.25,216.48 c -5.8,-1.72 -11.27,-0.06 -16.66,2.67 a 29.86,29.86 0 0 0 -12.59,12.66 29.51,29.51 0 0 0 -3.32,18.47 23.64,23.64 0 0 0 9.83,15.72 c 7.23,4.83 17.23,4.65 24.74,0.27 7.51,-4.38 12.48,-12.52 13.85,-21.1 a 28.79,28.79 0 0 0 -2.49,-17.5 21.87,21.87 0 0 0 -13.36,-11.22"
       style="fill:#263238"
       id="path183" />
    <path
       d="m 160,234.58 c 1.13,-2.16 1.1,-4.73 1.73,-7.09 1.39,-5.19 6.15,-8.91 11.32,-10.38 4.81,-1.37 10.35,-0.28 15.66,2.16 a 21.28,21.28 0 0 1 9.09,7.61 16.69,16.69 0 0 1 1.26,15.27 L 172.52,235 c -2.78,1.79 -5.63,3.61 -8.84,4.41 a 5.6,5.6 0 0 1 -2.87,0.11 2.52,2.52 0 0 1 -1.9,-2 c -0.12,-1.07 0.6,-2 1.09,-2.94 z"
       style="fill:#263238"
       id="path184" />
    <path
       d="m 188.4,226.8 -24.19,2.2 a 4.41,4.41 0 0 0 -4.63,3.82 l -5.84,51.1 a 16,16 0 0 0 2.17,10 l 1.9,3.17 c 4.34,7.23 14.82,7.81 19.62,0.88 a 5.55,5.55 0 0 0 0.7,-1.27 8.07,8.07 0 0 0 0.36,-1.13 l 1,-4.92 c 0.78,-4.52 1.36,-9.14 1.36,-9.1 0,0.04 9.8,-0.06 13.77,-12.21 2,-6 3.28,-16.25 4.08,-24.63 0.77,-7.55 -2.7,-17.51 -10.3,-17.91 z"
       style="fill:#ffbf9d"
       id="path185" />
    <path
       d="m 194.18,254.83 a 1.61,1.61 0 0 1 -1.8,1.36 1.54,1.54 0 0 1 -1.42,-1.7 1.62,1.62 0 0 1 1.8,-1.37 1.57,1.57 0 0 1 1.42,1.71 z"
       style="fill:#263238"
       id="path186" />
    <path
       d="m 195.7,249.65 c -0.23,0.18 -1.3,-0.91 -3,-1.18 -1.7,-0.27 -3.12,0.39 -3.27,0.15 -0.15,-0.24 0.18,-0.45 0.8,-0.77 a 4.42,4.42 0 0 1 2.66,-0.37 4.18,4.18 0 0 1 2.36,1.2 c 0.44,0.49 0.56,0.89 0.45,0.97 z"
       style="fill:#263238"
       id="path187" />
    <path
       d="m 178.84,253 a 1.62,1.62 0 0 1 -1.8,1.37 1.54,1.54 0 0 1 -1.41,-1.7 1.62,1.62 0 0 1 1.79,-1.37 1.54,1.54 0 0 1 1.42,1.7 z"
       style="fill:#263238"
       id="path188" />
    <path
       d="m 179.34,247.26 c -0.23,0.18 -1.3,-0.91 -3,-1.18 -1.7,-0.27 -3.11,0.39 -3.27,0.15 -0.16,-0.24 0.19,-0.45 0.8,-0.76 a 4.36,4.36 0 0 1 2.66,-0.38 4.18,4.18 0 0 1 2.36,1.2 c 0.45,0.49 0.57,0.89 0.45,0.97 z"
       style="fill:#263238"
       id="path189" />
    <path
       d="m 183,261 a 12.16,12.16 0 0 1 2.88,0 c 0.44,0 0.87,0 1,-0.29 a 2.22,2.22 0 0 0 -0.08,-1.35 c -0.25,-1.13 -0.5,-2.31 -0.77,-3.55 -1,-5.05 -1.72,-9.17 -1.52,-9.21 0.2,-0.04 1.22,4 2.26,9.07 0.25,1.24 0.48,2.43 0.71,3.56 a 2.55,2.55 0 0 1 0,1.76 1.11,1.11 0 0 1 -0.82,0.53 3.18,3.18 0 0 1 -0.77,0 A 11,11 0 0 1 183,261 Z"
       style="fill:#263238"
       id="path190" />
    <path
       d="m 180.9,281.56 a 32,32 0 0 1 -16,-7.11 c 0,0 2.82,9.3 15.48,10.12 z"
       style="fill:#ff9a6c"
       id="path191" />
    <path
       d="m 181.56,265.05 a 3.12,3.12 0 0 0 -2.59,-1.59 2.84,2.84 0 0 0 -2.12,0.74 1.8,1.8 0 0 0 -0.46,2 2.08,2.08 0 0 0 2.16,0.93 6.59,6.59 0 0 0 2.41,-1 1.86,1.86 0 0 0 0.57,-0.43 0.57,0.57 0 0 0 0.1,-0.64"
       style="fill:#ff9a6c"
       id="path192" />
    <path
       d="m 177.7,261.41 c 0.28,0 0,1.89 1.38,3.47 1.38,1.58 3.4,1.69 3.38,2 -0.02,0.31 -0.5,0.29 -1.35,0.18 a 4.74,4.74 0 0 1 -2.84,-1.53 4.11,4.11 0 0 1 -1,-2.89 c 0.02,-0.83 0.31,-1.26 0.43,-1.23 z"
       style="fill:#263238"
       id="path193" />
    <path
       d="m 180.74,241.19 c -0.25,0.44 -1.93,-0.06 -4,-0.13 -2.07,-0.07 -3.77,0.21 -4,-0.25 -0.09,-0.22 0.26,-0.62 1,-1 a 6.75,6.75 0 0 1 3.07,-0.55 6.59,6.59 0 0 1 3,0.85 c 0.72,0.44 1.03,0.89 0.93,1.08 z"
       style="fill:#263238"
       id="path194" />
    <path
       d="m 197.19,242.13 c -0.36,0.34 -1.48,-0.26 -2.9,-0.5 -1.42,-0.24 -2.68,-0.16 -2.89,-0.61 -0.09,-0.22 0.16,-0.58 0.75,-0.87 a 4.25,4.25 0 0 1 4.66,0.9 c 0.44,0.48 0.55,0.95 0.38,1.08 z"
       style="fill:#263238"
       id="path195" />
    <path
       d="m 156.12,230.42 c 3.31,-6.89 15.16,-15.41 22.64,-13.82 l 11.05,8.92 a 11.77,11.77 0 0 1 -9.15,7.8 c -2.22,0.35 -4.81,0.17 -6.34,1.83 -1.53,1.66 -1.18,4.52 -2.66,6.28 -2,2.45 -6.59,1.68 -8.25,4.4 -0.72,1.19 -0.65,2.74 -1.39,3.91 -1,1.57 -5.53,3.1 -7.2,2.3 -1.67,-0.8 -1.26,-3.79 -1.61,-5.43 a 8.33,8.33 0 0 1 0.52,-5.58 c 1.27,-3.42 0.81,-7.32 2.39,-10.61 z"
       style="fill:#263238"
       id="path196" />
    <path
       d="m 159.78,254.24 c 0.14,-0.93 0.33,-2.26 -0.51,-2.68 -2.51,-1.26 -7.79,-2.18 -8.82,4 -1.41,8.49 7.4,8.15 7.45,7.91 0.05,-0.24 1.38,-6.03 1.88,-9.23 z"
       style="fill:#ffbf9d"
       id="path197" />
    <path
       d="m 155.84,259.85 c 0,0 -0.16,0.08 -0.43,0.16 a 1.56,1.56 0 0 1 -1.11,-0.16 c -0.84,-0.48 -1.36,-2 -1.15,-3.57 a 5.15,5.15 0 0 1 0.77,-2 1.77,1.77 0 0 1 1.3,-0.95 0.78,0.78 0 0 1 0.81,0.55 c 0.07,0.26 0,0.42 0,0.44 0,0.02 0.21,-0.11 0.2,-0.47 a 1,1 0 0 0 -0.25,-0.59 1.14,1.14 0 0 0 -0.78,-0.35 2.11,2.11 0 0 0 -1.76,1.06 5.06,5.06 0 0 0 -0.91,2.28 c -0.23,1.72 0.38,3.46 1.55,4 a 1.58,1.58 0 0 0 1.39,0 c 0.33,-0.19 0.4,-0.38 0.37,-0.4 z"
       style="fill:#ff9a6c"
       id="path198" />
    <path
       d="m 187.64,222.65 c 0.37,3.56 5.11,8.65 7.11,11.63 3.8,5.7 4.47,7.51 3,19.05 2.57,-3.74 4.63,-7.45 5,-12 a 18.77,18.77 0 0 0 -3.47,-12.82 14.58,14.58 0 0 0 -11.69,-5.89"
       style="fill:#263238"
       id="path199" />
    <path
       d="m 153.18,228.22 c 4.85,-7 11,-10.71 16.55,-11.85"
       style="fill:#263238"
       id="path200" />
    <path
       d="m 151.3,261.09 a 2.25,2.25 0 0 1 -0.35,-0.39 12.1,12.1 0 0 1 -0.9,-1.25 18.61,18.61 0 0 1 -2.25,-5.17 34.2,34.2 0 0 1 -1.06,-8.3 24.82,24.82 0 0 1 1.8,-10.06 35.44,35.44 0 0 1 5,-9 32.59,32.59 0 0 1 5.87,-6 24,24 0 0 1 4.85,-2.88 c 0.61,-0.26 1.09,-0.45 1.43,-0.56 a 1.85,1.85 0 0 1 0.51,-0.14 c 0,0 -0.67,0.31 -1.85,0.89 a 26.07,26.07 0 0 0 -4.71,3 33.55,33.55 0 0 0 -5.72,6 35.63,35.63 0 0 0 -4.92,8.87 24.7,24.7 0 0 0 -1.81,9.87 35.43,35.43 0 0 0 0.94,8.22 20,20 0 0 0 2.06,5.16 c 0.69,1.14 1.16,1.71 1.11,1.74 z"
       style="fill:#455a64"
       id="path201" />
    <path
       d="m 194.21,370.06 c 0,0 48.79,-5.53 56.79,-6.88 15.26,-2.59 30.52,-0.12 37,13 2.95,6 -0.79,17.49 -9.73,26 -6.68,6.38 -39.81,39.89 -39.81,39.89 l -28.39,-23.71 35.14,-27.33 -68.12,9.57 z"
       style="fill:#263238"
       id="path202" />
    <path
       d="M 244.83,425.74 226.56,445 c 0,0 13.81,25.34 10.79,29.24 L 198,439.61 225.21,408.37 Z"
       style="fill:#263238"
       id="path203" />
    <path
       d="m 215.87,432.63 a 2.1,2.1 0 0 0 -2.7,0.82 2.06,2.06 0 0 0 0.84,2.69 2.21,2.21 0 0 0 2.85,-0.89 2.13,2.13 0 0 0 -1.18,-2.7"
       style="fill:#e0e0e0"
       id="path204" />
    <path
       d="m 198,439.61 2.75,-3.16 36.91,34.62 a 4.33,4.33 0 0 1 -0.3,3.21 z"
       style="fill:#455a64"
       id="path205" />
    <path
       d="m 227.38,445.39 c -0.18,0.18 -1.21,-0.58 -2.69,-0.8 -1.48,-0.22 -2.69,0.12 -2.8,-0.11 -0.11,-0.23 1.14,-1.07 2.93,-0.76 1.79,0.31 2.75,1.53 2.56,1.67 z"
       style="fill:#ffffff"
       id="path206" />
    <path
       d="m 230,450.71 c -0.12,0.22 -1.24,-0.2 -2.59,0 -1.35,0.2 -2.29,0.9 -2.48,0.72 -0.19,-0.18 0.64,-1.35 2.33,-1.59 1.69,-0.24 2.92,0.68 2.74,0.87 z"
       style="fill:#ffffff"
       id="path207" />
    <path
       d="m 228.1,457.63 c -0.21,-0.12 0.35,-1.3 1.75,-1.9 1.4,-0.6 2.67,-0.22 2.61,0 -0.06,0.22 -1.1,0.3 -2.24,0.81 -1.14,0.51 -1.92,1.24 -2.12,1.09 z"
       style="fill:#ffffff"
       id="path208" />
    <path
       d="m 231,440.53 c -0.23,0.1 -0.88,-0.94 -2,-1.83 -1.12,-0.89 -2.3,-1.29 -2.25,-1.54 0.05,-0.25 1.45,-0.21 2.79,0.85 1.34,1.06 1.73,2.45 1.46,2.52 z"
       style="fill:#ffffff"
       id="path209" />
    <path
       d="m 258,422.38 a 2.47,2.47 0 0 1 -0.36,0.43 l -1.07,1.19 -4.07,4.22 -13.86,14.1 -0.17,0.17 -0.18,-0.15 -3.54,-3 -17.53,-14.73 -5.22,-4.51 -1.42,-1.25 a 3.57,3.57 0 0 1 -0.47,-0.46 3.29,3.29 0 0 1 0.54,0.38 l 1.48,1.17 5.38,4.39 17.62,14.61 3.54,3 h -0.35 l 14,-14 4.18,-4.1 1.15,-1.09 a 2.25,2.25 0 0 1 0.35,-0.37 z"
       style="fill:#455a64"
       id="path210" />
    <path
       d="m 299.55,420.83 24,21.14 23.78,11.27 a 3.27,3.27 0 0 1 1.46,4.55 v 0 a 3.26,3.26 0 0 1 -2.5,1.66 c -6.72,0.72 -31.46,3.23 -33.13,1.58 -1.93,-1.9 -26.76,-20.63 -26.76,-20.63 z"
       style="fill:#263238"
       id="path211" />
    <path
       d="m 348.76,457.79 -37.28,1.85 1.65,1.39 a 3.3,3.3 0 0 0 2.59,0.65 c 3.13,0 11.78,-0.25 30.48,-2.15 a 3.3,3.3 0 0 0 2.56,-1.74 z"
       style="fill:#455a64"
       id="path212" />
    <g
       style="opacity:0.6"
       id="g213">
      <path
         d="m 311.47,450.52 a 2,2 0 0 1 2.33,1.26 1.9,1.9 0 0 1 -1.22,2.31 2.08,2.08 0 0 1 -2.46,-1.33 2,2 0 0 1 1.54,-2.28"
         style="fill:#ffffff"
         id="path213" />
    </g>
    <path
       d="m 333.37,454.38 c 0.18,-0.08 -0.63,-1.71 -0.1,-3.74 0.53,-2.03 2,-3.11 1.84,-3.27 -0.16,-0.16 -0.5,0.08 -1.06,0.58 a 5.21,5.21 0 0 0 -1.34,5.43 c 0.29,0.71 0.59,1.05 0.66,1 z"
       style="fill:#ffffff"
       id="path214" />
    <path
       d="m 338.11,455.4 c 0.2,0 0.07,-1.48 0.77,-3 0.7,-1.52 1.83,-2.48 1.71,-2.65 -0.12,-0.17 -1.58,0.57 -2.35,2.37 -0.77,1.8 -0.3,3.35 -0.13,3.28 z"
       style="fill:#ffffff"
       id="path215" />
    <path
       d="m 326.44,454.09 c 0.22,0 0,-2.25 0.88,-4.79 0.88,-2.54 2.37,-4.19 2.21,-4.34 -0.16,-0.15 -2,1.38 -2.88,4.12 -0.88,2.74 -0.37,5.07 -0.21,5.01 z"
       style="fill:#ffffff"
       id="path216" />
    <path
       d="m 318.62,448.27 c 0.2,0.06 0.77,-1.77 2.19,-3.58 1.42,-1.81 3,-2.85 2.91,-3 -0.09,-0.15 -2,0.64 -3.46,2.6 -1.46,1.96 -1.82,3.96 -1.64,3.98 z"
       style="fill:#ffffff"
       id="path217" />
    <path
       d="m 313.27,444.52 c 0.21,0 0.54,-2 2.19,-3.79 1.65,-1.79 3.61,-2.35 3.54,-2.55 -0.07,-0.2 -0.55,-0.08 -1.35,0.21 a 7.17,7.17 0 0 0 -4.3,4.76 c -0.21,0.85 -0.16,1.36 -0.08,1.37 z"
       style="fill:#ffffff"
       id="path218" />
    <path
       d="m 116.33,391.76 c 0.49,1.22 -1.67,40.45 35.56,40.69 33.42,0.22 78.37,-30.41 83.5,-28.45 3.35,1.29 61,51.4 61,51.4 L 317.25,431 c 0,0 -53.38,-51 -58.63,-54.65 -11.24,-7.86 -19.14,-7.8 -37.63,-4.45 -16.55,3 -57.08,16.45 -57.08,16.45 L 160,385 Z"
       style="fill:#263238"
       id="path219" />
    <path
       d="m 209,375.85 c 0,0 0.21,-0.1 0.63,-0.26 l 1.86,-0.7 c 1.65,-0.59 4.09,-1.43 7.3,-2.33 a 91,91 0 0 1 11.87,-2.51 48.89,48.89 0 0 1 7.58,-0.52 38.65,38.65 0 0 1 8.45,1.07 40.87,40.87 0 0 1 17.27,8.92 c 5.15,4.8 10.52,10.05 16.25,15.51 l 37.24,35.74 0.17,0.17 -0.16,0.19 c -0.9,1.07 -1.88,2.22 -2.87,3.37 -3.08,3.63 -6.28,7.32 -9.45,10.72 -3.17,3.4 -6,6.82 -8.94,10.2 l 0.08,0.18 -32.69,-28.27 c -4.95,-4.3 -9.64,-8.35 -14,-12.13 l -6.3,-5.45 c -1,-0.88 -2,-1.73 -3,-2.56 -0.48,-0.42 -0.95,-0.85 -1.44,-1.21 a 8.36,8.36 0 0 0 -1.56,-0.89 8,8 0 0 0 -6.59,0.11 l -5.51,2.7 -8.79,4.31 -5.52,2.69 -1.43,0.68 -0.5,0.22 c 0,0 0.16,-0.1 0.47,-0.26 l 1.42,-0.73 5.48,-2.76 8.75,-4.38 5.5,-2.74 a 8.31,8.31 0 0 1 8.48,0.78 c 0.52,0.38 1,0.8 1.47,1.21 l 3,2.55 6.32,5.43 14,12.09 32.74,28.22 0.09,0.17 c 2.88,-3.42 5.87,-6.94 8.75,-10.57 2.88,-3.63 5.71,-7.09 8.78,-10.69 l 2.83,-3.33 v 0.36 l -37.21,-35.78 c -5.72,-5.47 -11.09,-10.74 -16.2,-15.53 a 40.69,40.69 0 0 0 -17.03,-8.84 39.3,39.3 0 0 0 -8.38,-1.1 48.62,48.62 0 0 0 -7.53,0.49 91.89,91.89 0 0 0 -11.86,2.41 c -3.21,0.87 -5.66,1.68 -7.31,2.24 l -1.88,0.65 c -0.43,0.1 -0.63,0.16 -0.63,0.16 z"
       style="fill:#455a64"
       id="path220" />
    <path
       d="m 188.57,288.78 c 0,0 12.35,4.9 13.81,15.34 1.22,8.7 -1.49,31.88 -1.45,33.45 a 5.49,5.49 0 0 0 1.31,3.75 8.71,8.71 0 0 1 2.33,6 9.39,9.39 0 0 1 -0.76,4.34 c -1.41,2.38 -15.07,18.2 -15.07,18.2 L 176.6,344.59 c 0,0 8,-23.66 8,-24.27 0,-0.61 3.97,-31.54 3.97,-31.54 z"
       style="fill:#6ddfd8"
       id="path221" />
    <path
       d="m 202.55,350.59 c 0.52,0.07 18.33,12.72 18.33,12.72 0,0 4.35,-8.4 6.3,-8.65 1.95,-0.25 7.95,2.06 8.48,2.69 0.53,0.63 1.7,0.74 2.88,0.85 1.18,0.11 3.26,3.06 3.26,3.06 l 4,3 c 0,0 -1.26,2.34 -1.59,2.74 -0.33,0.4 -3,-0.72 -3,-1.15 0,-0.43 0.34,2.63 -1.74,2.72 a 11.66,11.66 0 0 1 -4.76,-1.32 l -0.7,-3.53 -5.16,-3.36 -0.62,3.39 c 0,0 5.23,1.07 5.06,2.79 a 2.63,2.63 0 0 1 -1.69,2.22 l -4.32,-0.09 -9.51,2.28 c 0,0 -24.94,-5.52 -25.85,-8.35 -0.91,-2.83 3.32,-13 10.63,-12.01 z"
       style="fill:#ffbf9d"
       id="path222" />
    <path
       d="m 202.73,344.68 a 17.42,17.42 0 0 1 4.93,6.85 c 1.1,2.53 13,11.23 13,11.23 l -9.66,7.81 c 0,0 -20.12,0.83 -21.06,-2.16 -0.94,-2.99 2.2,-16.33 2.2,-16.33 z"
       style="fill:#6ddfd8"
       id="path223" />
    <path
       d="m 190.19,378.63 v 0 a 1.71,1.71 0 0 0 2,1.22 l 35,-7.65 30.06,-5.47 0.25,-2.67 -28.72,4.12 -37.31,8.34 a 1.71,1.71 0 0 0 -1.28,2.11 z"
       style="fill:#e0e0e0"
       id="path224" />
    <path
       d="m 244.84,327.05 -16.17,41.4 a 2.29,2.29 0 0 0 2.5,3.09 l 35.7,-6.59 a 2.27,2.27 0 0 0 1.75,-1.43 l 16.22,-41.07 a 1.22,1.22 0 0 0 -1.23,-1.66 l -36.83,4.82 a 2.28,2.28 0 0 0 -1.94,1.44 z"
       style="fill:#e0e0e0"
       id="path225" />
    <path
       d="m 248.49,325.61 c 0.14,0.06 -3.74,10.36 -8.65,23 -4.91,12.64 -9,22.89 -9.14,22.84 -0.14,-0.05 3.74,-10.36 8.66,-23 4.92,-12.64 9,-22.89 9.13,-22.84 z"
       style="fill:#263238"
       id="path226" />
    <path
       d="m 257.43,345.19 c -1,2 -0.94,4.06 0.15,4.61 1.09,0.55 2.78,-0.63 3.78,-2.63 1,-2 0.95,-4.06 -0.14,-4.6 -1.09,-0.54 -2.78,0.62 -3.79,2.62 z"
       style="fill:#ffffff"
       id="path227" />
    <path
       d="m 190.78,372.19 c 0,0 -2.92,-12.27 -2.33,-14.52 1.68,-6.47 10.33,-22.8 9.61,-32.58 -0.72,-9.78 -9.49,-36.31 -9.49,-36.31 l -8.36,-2.91 c -3.38,7.37 -16.5,5.72 -27.21,-2.91 l -13.42,2.72 -21,65.38 -3.58,23.82 c -8.52,11.11 1.3,17 1.3,17 0,0 16.18,5.1 29,2.81 9.57,-1.7 23.53,-8.46 26.66,-10.91 7.49,-5.87 19.37,-5.46 19.37,-5.46 z"
       style="fill:#6ddfd8"
       id="path228" />
    <path
       d="m 167.3,372.79 8.76,3.58 c 0,0 4.87,-2.9 5.58,-3.17 a 104.88,104.88 0 0 1 12.36,-1.52 24.13,24.13 0 0 0 4.06,-0.25 l -11.57,7.12 -7.33,9.76 a 22.12,22.12 0 0 1 -6.24,1.09 c -3.22,0 -10.82,-1.84 -10.82,-1.84 z"
       style="fill:#ffbf9d"
       id="path229" />
    <path
       d="m 141.26,285.48 c 0,0 -15.37,0.91 -20.78,13.18 -3.61,8.18 -11,44.22 -12.14,50.81 -1.14,6.59 0,14.62 5.28,18.78 5.28,4.16 49.07,22.81 49.07,22.81 l 9.13,-17.59 -36.94,-22.94 h -1.2 l 4.42,-26.47"
       style="fill:#6ddfd8"
       id="path230" />
    <path
       d="m 138.1,324.05 c 0,0 0,0.15 0,0.46 l -0.21,1.34 c -0.19,1.2 -0.46,2.95 -0.82,5.2 -0.75,4.56 -1.82,11.18 -3.18,19.49 l -0.16,-0.18 h 1.25 v 0 l 37,22.88 0.19,0.12 -0.1,0.19 c -2.9,5.6 -5.95,11.5 -9.12,17.6 l -0.1,0.21 -0.22,-0.1 c -8.89,-3.79 -18.36,-7.92 -28.06,-12.31 q -5.76,-2.61 -11.32,-5.27 c -1.84,-0.9 -3.67,-1.8 -5.46,-2.74 a 23.54,23.54 0 0 1 -5.11,-3.25 14.32,14.32 0 0 1 -3.33,-5 20.56,20.56 0 0 1 -1.43,-5.66 28,28 0 0 1 0,-5.71 c 0.18,-1.88 0.57,-3.69 0.9,-5.49 1.4,-7.16 2.86,-13.94 4.28,-20.28 1.42,-6.34 2.84,-12.22 4.28,-17.55 0.72,-2.66 1.46,-5.19 2.27,-7.55 a 22,22 0 0 1 3.35,-6.19 22.43,22.43 0 0 1 4.51,-4.14 26.52,26.52 0 0 1 4.53,-2.45 31.27,31.27 0 0 1 6.83,-2 c 0.8,-0.13 1.42,-0.2 1.83,-0.24 a 5,5 0 0 1 0.63,0 l -0.62,0.08 c -0.42,0.06 -1,0.15 -1.83,0.3 a 31.9,31.9 0 0 0 -6.76,2.08 26.17,26.17 0 0 0 -4.47,2.46 22.26,22.26 0 0 0 -4.42,4.12 21.63,21.63 0 0 0 -3.27,6.12 c -0.79,2.35 -1.52,4.87 -2.22,7.54 -1.42,5.33 -2.81,11.21 -4.21,17.55 -1.4,6.34 -2.85,13.11 -4.24,20.27 -0.32,1.8 -0.71,3.61 -0.88,5.45 a 26.23,26.23 0 0 0 0,5.6 c 0.43,3.72 1.76,7.59 4.61,10.3 a 23.6,23.6 0 0 0 5,3.17 c 1.78,0.93 3.61,1.83 5.45,2.72 q 5.55,2.65 11.3,5.26 c 9.7,4.39 19.17,8.52 28,12.33 l -0.32,0.12 9.14,-17.59 0.08,0.31 -36.89,-23 h 0.08 -1.2 -0.19 v -0.19 L 136.85,331 c 0.39,-2.25 0.7,-4 0.91,-5.19 0.1,-0.57 0.18,-1 0.24,-1.33 0.06,-0.33 0.1,-0.43 0.1,-0.43 z"
       style="fill:#263238"
       id="path231" />
    <path
       d="m 196.73,304.11 c 0.05,0 -0.21,0.93 -0.39,2.61 a 23.73,23.73 0 0 0 -0.1,3.07 c 0,1.2 0.19,2.56 0.4,4.07 a 87.28,87.28 0 0 1 1.09,10.63 33,33 0 0 1 -2.06,12.92 c -1.69,4.35 -3.9,8.21 -5.27,11.95 a 25,25 0 0 0 -1.09,10.45 c 0.19,3 0.47,5.47 0.65,7.16 0.08,0.8 0.14,1.45 0.19,1.94 a 3.57,3.57 0 0 1 0,0.69 2.93,2.93 0 0 1 -0.14,-0.67 c -0.08,-0.5 -0.17,-1.14 -0.3,-1.94 -0.23,-1.68 -0.57,-4.12 -0.81,-7.16 a 25,25 0 0 1 1,-10.63 c 1.37,-3.81 3.57,-7.68 5.24,-12 a 33.34,33.34 0 0 0 2.06,-12.73 92.05,92.05 0 0 0 -1,-10.6 c -0.18,-1.51 -0.3,-2.89 -0.32,-4.1 a 19.82,19.82 0 0 1 0.19,-3.11 15.68,15.68 0 0 1 0.38,-1.92 3.21,3.21 0 0 1 0.28,-0.63 z"
       style="fill:#263238"
       id="path232" />
    <path
       d="m 142.46,311.21 c -0.1,0 0.38,-1.39 0.63,-3.66 a 20.93,20.93 0 0 0 0.06,-4 24,24 0 0 0 -0.94,-4.8 22.92,22.92 0 0 0 -4.27,-7.77 c -1.47,-1.75 -2.6,-2.64 -2.53,-2.72 a 3.8,3.8 0 0 1 0.82,0.58 16.14,16.14 0 0 1 2,1.9 21.49,21.49 0 0 1 4.49,7.85 23.2,23.2 0 0 1 0.92,4.93 19.4,19.4 0 0 1 -0.17,4.08 13.36,13.36 0 0 1 -0.3,1.55 7.5,7.5 0 0 1 -0.33,1.13 4.14,4.14 0 0 1 -0.38,0.93 z"
       style="fill:#263238"
       id="path233" />
    <path
       d="m 163.76,347.81 a 23,23 0 0 0 4.16,-1.62 18.71,18.71 0 0 0 1.9,-1.22 24.28,24.28 0 0 0 1.94,-1.71 23.72,23.72 0 0 0 3.65,-4.65 31.72,31.72 0 0 0 3.89,-10 c 0.52,-2.73 0.56,-4.46 0.67,-4.45 a 6,6 0 0 1 0,1.21 26,26 0 0 1 -0.33,3.31 29.24,29.24 0 0 1 -3.81,10.23 22.13,22.13 0 0 1 -3.76,4.73 21.62,21.62 0 0 1 -2,1.71 17.21,17.21 0 0 1 -2,1.19 11.2,11.2 0 0 1 -1.75,0.75 8.51,8.51 0 0 1 -1.38,0.39 6.63,6.63 0 0 1 -1.18,0.13 z"
       style="fill:#263238"
       id="path234" />
    <path
       d="m 124,355.32 a 12.32,12.32 0 0 1 5,-3.6 12.53,12.53 0 0 1 6,-1.26 37.18,37.18 0 0 0 -5.81,1.74 37,37 0 0 0 -5.19,3.12 z"
       style="fill:#263238"
       id="path235" />
    <path
       d="m 200.3,373.74 a 1.57,1.57 0 0 1 -1.19,1.29 1.75,1.75 0 0 1 -0.4,0 c -1,0 -1.41,-1.79 -1.41,-1.79 l -4.34,0.59 c 0,0 -6.2,7.86 -8.39,10.09 -8.61,8.78 -10.85,2.44 -10.85,2.44 l 2.66,-10.31 5.51,-9.22 c 0,0 -0.35,0.56 -0.22,-0.89 0.13,-1.45 2.68,-1.7 2.68,-1.7 0.17,-0.75 1.67,-1.45 1.67,-1.45 l 6.91,-1.28 a 4.79,4.79 0 0 1 4,1.08 l 4.19,3.6 c 0,0 2.48,2.76 2.47,3.59 a 1.4,1.4 0 0 1 -1.29,1.35 c 0,0 0.32,2.22 -0.21,2.46 a 4.9,4.9 0 0 1 -1.78,0.11 z"
       style="fill:#ffbf9d"
       id="path236" />
    <path
       d="m 184.15,371.76 c 0,0.07 0.89,-0.29 2.34,-0.66 a 21,21 0 0 1 5.76,-0.65 20.53,20.53 0 0 1 3.18,0.34 c 0.94,0.21 1.9,0.32 2.34,0.83 a 0.84,0.84 0 0 1 0.17,0.82 1.2,1.2 0 0 1 -0.38,0.58 c -0.3,0.25 -0.56,0.22 -0.55,0.27 0.01,0.05 0.26,0.12 0.66,-0.13 a 1.25,1.25 0 0 0 0.5,-0.64 1.08,1.08 0 0 0 -0.16,-1.09 2.2,2.2 0 0 0 -1.12,-0.69 c -0.43,-0.13 -0.89,-0.25 -1.38,-0.35 a 18.4,18.4 0 0 0 -9.11,0.41 8.26,8.26 0 0 0 -2.25,0.96 z"
       style="fill:#ff9a6c"
       id="path237" />
    <path
       d="m 185,376.16 c 0,0.12 2.73,-0.82 6.13,-1.65 3.4,-0.83 6.21,-1.24 6.19,-1.37 a 7,7 0 0 0 -1.87,0.11 39.39,39.39 0 0 0 -4.43,0.83 40.83,40.83 0 0 0 -4.31,1.31 7.25,7.25 0 0 0 -1.71,0.77 z"
       style="fill:#ff9a6c"
       id="path238" />
    <path
       d="m 200.21,373.58 a 3.1,3.1 0 0 0 -0.13,-0.74 17.29,17.29 0 0 0 -0.6,-1.95 8.22,8.22 0 0 0 -0.6,-1.3 4.17,4.17 0 0 0 -1.1,-1.25 9.48,9.48 0 0 0 -3.29,-1.8 13,13 0 0 0 -3.68,-0.63 11.63,11.63 0 0 0 -3,0.44 c -0.84,0.22 -1.5,0.45 -1.95,0.6 a 2.49,2.49 0 0 0 -0.69,0.29 23.25,23.25 0 0 0 2.71,-0.58 12.64,12.64 0 0 1 2.94,-0.34 13.24,13.24 0 0 1 3.56,0.65 9.51,9.51 0 0 1 3.17,1.69 5.29,5.29 0 0 1 1.66,2.35 c 0.64,1.56 0.91,2.6 1,2.57 z"
       style="fill:#ff9a6c"
       id="path239" />
    <path
       d="m 186.86,364.42 c 0,0.07 1,-0.21 2.68,-0.52 1.68,-0.31 4.1,-0.87 6.15,0.82 a 23.76,23.76 0 0 1 5,4.2 14.7,14.7 0 0 1 1.4,2.31 2.11,2.11 0 0 0 -0.18,-0.72 7,7 0 0 0 -1,-1.78 20.74,20.74 0 0 0 -5,-4.38 7.79,7.79 0 0 0 -1.7,-0.92 5,5 0 0 0 -1.8,-0.25 14.88,14.88 0 0 0 -3,0.41 10.83,10.83 0 0 0 -2.55,0.83 z"
       style="fill:#ff9a6c"
       id="path240" />
    <path
       d="m 188.46,380 a 3.82,3.82 0 0 0 0.3,-0.43 l 0.85,-1.24 a 47.08,47.08 0 0 1 3.46,-4.36 h -0.09 l 4.35,-0.56 -0.2,-0.13 a 4.33,4.33 0 0 0 0.39,1 2,2 0 0 0 0.77,0.85 1.16,1.16 0 0 0 0.63,0.08 1.59,1.59 0 0 0 0.59,-0.14 1.8,1.8 0 0 0 0.85,-0.89 1.33,1.33 0 0 0 0.11,-0.3 v -0.13 0 l -0.22,0.17 h 0.16 q 0.3,0 0.6,0 0.3,0 0.6,0 a 1.83,1.83 0 0 0 0.32,-0.07 0.67,0.67 0 0 0 0.36,-0.19 1.27,1.27 0 0 0 0.24,-0.67 4.43,4.43 0 0 0 0,-0.63 10.51,10.51 0 0 0 -0.09,-1.25 l -0.19,0.24 a 1.64,1.64 0 0 0 1.38,-1 1.32,1.32 0 0 0 0,-0.92 5.29,5.29 0 0 0 -0.39,-0.75 23.15,23.15 0 0 0 -2.05,-2.62 v 0 l -2.19,-1.92 -1.42,-1.22 a 9,9 0 0 0 -1.49,-1.14 4.86,4.86 0 0 0 -1.81,-0.54 6,6 0 0 0 -1.81,0.17 l -6.47,1.22 v 0 a 5.2,5.2 0 0 0 -1,0.63 1.89,1.89 0 0 0 -0.76,1 l 0.21,-0.14 a 2.42,2.42 0 0 0 -2.11,0.77 2.85,2.85 0 0 0 -0.54,2 v -0.1 l -3.81,6.32 -1,1.74 a 3.81,3.81 0 0 0 -0.33,0.62 3,3 0 0 0 0.41,-0.58 l 1.09,-1.68 L 182,367 v 0 -0.06 a 2.49,2.49 0 0 1 0.49,-1.76 2,2 0 0 1 1.78,-0.63 h 0.17 v -0.16 a 1.66,1.66 0 0 1 0.62,-0.75 6.51,6.51 0 0 1 0.95,-0.58 v 0 l 6.52,-1.18 a 5.74,5.74 0 0 1 1.69,-0.16 4.16,4.16 0 0 1 1.64,0.49 8.22,8.22 0 0 1 1.41,1.09 l 1.42,1.22 2.31,1.88 v 0 a 23.75,23.75 0 0 1 2,2.56 3.59,3.59 0 0 1 0.35,0.67 0.89,0.89 0 0 1 0,0.62 1.19,1.19 0 0 1 -1,0.73 h -0.22 v 0.21 a 9.69,9.69 0 0 1 0.09,1.2 2,2 0 0 1 -0.15,1 0.48,0.48 0 0 1 -0.17,0.07 1.09,1.09 0 0 1 -0.26,0.05 3.38,3.38 0 0 1 -0.55,0 3.62,3.62 0 0 1 -0.57,0 h -0.15 c 0.2,-0.14 -0.26,0.2 -0.21,0.17 v 0 0 0.07 a 0.9,0.9 0 0 1 -0.08,0.23 1.37,1.37 0 0 1 -0.66,0.7 1.2,1.2 0 0 1 -0.46,0.11 0.68,0.68 0 0 1 -0.43,0 2.71,2.71 0 0 1 -1,-1.59 v -0.15 h -0.15 l -4.34,0.62 h -0.06 v 0 a 42.45,42.45 0 0 0 -3.38,4.47 c -0.35,0.55 -0.61,1 -0.78,1.29 a 2.79,2.79 0 0 0 -0.36,0.57 z"
       style="fill:#ff9a6c"
       id="path241" />
    <g
       style="opacity:0.3"
       id="g242">
      <path
         d="m 179.61,328.81 a 31.67,31.67 0 0 1 -4.17,10.44 c -2.39,3.66 -5.38,5.59 -9.1,7.88 l -0.28,0.11 a 14.08,14.08 0 0 0 13.55,-18.43 z"
         id="path242" />
    </g>
  </g>
</svg>
